<svg xmlns="http://www.w3.org/2000/svg" width="1024" height="1024" viewBox="0 0 1024 1024"><circle cx="512" cy="512" r="512" fill="#000"/><g fill="#f0bc03"><path d="M411.8 149.6c-28.3.3-61.4 3-96.8 8l-7.6 1.1a352.5 352.5 0 0 0-16 2.6 900 900 0 0 0-46.5 9c-13 3-31.7 7.9-43.9 11.7-1.5.5-3.3.9-4 .9-.9 0-1.6.2-1.8.5-.2.3-2.3 1.3-4.8 2.2-9.2 3.3-10.8 4.8-9.8 9.4.3 1.3.5 2.9.3 3.5-.2.8-.1 1.4.2 1.6 1 .6 1.2 2 .5 2.6-.6.4-.6.6.3 1.6.8.8 1 1.6 1.1 3.3 0 1.3.4 2.8.8 3.3.4.6 1.3 3.8 2.2 7.2a179.6 179.6 0 0 0 3.4 12.9l2.3 8.2a428.8 428.8 0 0 0 15.4 51.1 530.8 530.8 0 0 0 8.5 22.9c3 8.1 12.7 32.5 16 39.8.1.5 3.3 7.8 7 16.3A898.8 898.8 0 0 0 254 404c4.5 9.9 22 45.6 28 57.1l4.9 9.1a2171.2 2171.2 0 0 0 23.1 42.5c.5.8 2.3 3.8 3.9 6.8l4.8 8.2 2.4 4.2 3.5 6a1555.5 1555.5 0 0 0 46.2 72.7l5.4 7.8 4.2 6 3.7 5.1A643.7 643.7 0 0 0 474 731.7c1.5 1 2.3 1 5.3-.5 3.4-1.6 11.3-8 21.6-17.4l3.7-3.2 7-6c2.6-2.5 5.7-5.2 6.8-6.1 4.9-4 4.6-3.5 8-13.9l2.3-7c2.2-5.3 10.1-19.8 13-24a76 76 0 0 1 15.2-15.8c6.5-5 13-8.8 18.8-11.1l4.5-1.8a186.5 186.5 0 0 1 43.2-11.3c.6-.2 1 .1 1.6 1.2a66.5 66.5 0 0 1 7.5 29.1c.6 6.7.3 10.8-.9 15.5l-1.5 6c-.7 2.9-.6 5.3.8 10.7 1.8 7.2 6 12.2 13.5 16.4 2.6 1.5 15.8 7.3 22.2 9.8 12 4.6 20.4 10 29 19 9.4 9.6 14.7 16.2 18.8 23.5a208 208 0 0 1 10.7 23 144.5 144.5 0 0 1 10 58.3 85 85 0 0 1-1.7 17.6 11 11 0 0 0-.2 4.6l.3 3.3 3 3.7c3.6 4.5 3.8 4.7 8.1 6.8 5.3 2.7 12.7 4 19.9 3.6 5.1-.3 14.8-1.7 20.4-3a64.5 64.5 0 0 1 20-1c4.3.6 11.3 2.5 16.8 4.5a96.2 96.2 0 0 0 13.1 3.7c8.5 1.2 17-1.3 19.8-6a94.2 94.2 0 0 0 2.4-35.5 229.3 229.3 0 0 0-11-41.7c-2-5.4-4-9.9-7-15.6a573 573 0 0 0-10.7-20.2c-1.8-3-7.3-11.4-10.4-16.1l-4.9-7.5a199.3 199.3 0 0 0-7.9-12l-5.2-7.4a725.5 725.5 0 0 1-17.6-26c-1.8-3.1-18.4-28.4-22.4-34.1a442.7 442.7 0 0 1-24.6-40.7 89.1 89.1 0 0 1-5.8-11.2l-2-4.7a123.8 123.8 0 0 1-4.3-9.3 88.5 88.5 0 0 1-2.7-6.3L718 570a90.8 90.8 0 0 0-26-35.3 43 43 0 0 0-22-11.5l-2.8-.3-6.8-8.1a622.6 622.6 0 0 1-36-47.7 834.3 834.3 0 0 1-48.6-79.8l-3.1-6c-1.7-3-15.3-30.1-17.4-34.7l-6.5-14-7.1-16.3c-2.6-6-4.9-11.2-5-11.7-.3-.4-1.8-4.5-3.6-8.9a714 714 0 0 1-23-67.6 669 669 0 0 1-6.7-27c-1.7-8-4.8-24.3-5.1-27-.5-3.3-1.9-8.6-2.8-10.4-.7-1.3-2.9-3-4-3a67.5 67.5 0 0 0-24-8c-8.8-1.5-14.9-2-29-2.8-8.3-.4-17.2-.5-26.7-.4zm.4 12.7c10-.2 19.1-.1 27.2.3 13.2.6 26.5 2.2 34 4.2 3.4.9 12.3 3.8 13 4.4.4.1.7 2 .8 4.4.9 12 4.1 30.3 8.5 48.2a709.5 709.5 0 0 0 29.2 86.6 15 15 0 0 1 1.3 3.8c0 .1-2-.1-4.3-.5l-6-1c-3.1-.3-20.9-5.7-23.6-7a88.8 88.8 0 0 1-21.4-15.4 52.5 52.5 0 0 1-16.5-30.3 57.8 57.8 0 0 1 1.3-25.7c1-1.9 4.9-5.8 7.6-7.6 2.8-1.9 4.3-2.3 9.1-2.6 3.8-.2 4.5-.1 6.3.7 1.2.5 2.2.8 2.4.6.4-.3-2.8-3-5-4-1.7-.9-2.6-1-7-1-5.1 0-5.2 0-8.3 1.6-5.9 2.8-11.9 9-12.5 12.7l-.9 5.3c-.9 5.7-.8 15.7.2 21.7a50.8 50.8 0 0 0 8.1 21.7l2.2 3.2-.5 4.4a131 131 0 0 1-7.3 32.8 99 99 0 0 1-10.3 18.9 97.4 97.4 0 0 1-18.5 17.6c-5.1 3.3-6.7 4-18.4 7.7-7 2.3-10.6 3.2-14 3.6-9.2 1.2-20.2 1.1-29-.1-4-.6-15.1-3.5-18.7-4.8l-9.8-4.5a48.8 48.8 0 0 1-17-12.5 83.3 83.3 0 0 1-20.6-37.9 45.4 45.4 0 0 1 0-21c1.2-9 2.7-13.2 7.2-19.3l4-5.8a83.2 83.2 0 0 1 5.3-7c0-.2 1.5-1.4 3.4-2.6 10.3-7.3 20.9-9.8 31.2-7.3a89.2 89.2 0 0 1 15 5.3 43 43 0 0 1 12.4 10 46 46 0 0 1 4 7.4l2 4.8v7.4c0 6.8 0 7.8-1.1 11l-1.4 5a26 26 0 0 1-2.3 4.6l-2.5 4.3c-.8 1.5.2 1.5 1.8 0 7.8-6.7 12.1-26.6 8-36a35.6 35.6 0 0 0-7.8-13.8 48.9 48.9 0 0 0-22.2-13.2l-8-2.7h-7c-6.5 0-7.3.1-10.6 1.2a44.6 44.6 0 0 0-21 12.6 136.5 136.5 0 0 0-13.3 18.4 48.9 48.9 0 0 0-3.4 12.7l-1.1 7.8c-.3 2.2-.6 4.8-.6 5.8 0 2.5-.5 2.6-1.4.2l-1.6-4c-.5-1.3-.8-2.5-.8-2.8 0-.4-.3-1-.7-1.5-.3-.4-.6-1-.6-1.4 0-.4-.3-1.2-.6-2l-2.8-7.4-1-3-.7-1.9a7 7 0 0 1-.6-1.9l-.7-2.1a429.8 429.8 0 0 0-5.5-16.1c-.3-.8-.6-2.2-.6-3 0-1-.4-2-.8-2.4-.4-.5-.7-1-.7-1.3 0-.3-.3-1.6-.8-3l-1.5-5a71 71 0 0 0-2-6.7l-1-3.3c-.8-2-.8-2.1.2-1.9 1.1.3 1 .2-.4-1.5-1.5-1.5-2.1-3.4-1.4-3.6.9-.3.6-2.1-.4-3.4-1-1.2-2.9-6.4-2.9-8.1a7 7 0 0 0-.6-2.3c-.3-.7-.8-2.4-1-3.7a74 74 0 0 0-2.1-9c-.3-.7-.5-1.8-.5-2.6a9 9 0 0 0-.6-3 11 11 0 0 1-.7-3.3c0-1-.3-2.5-.6-3.5-1-2.4-.9-5.1.1-5.4.8-.3 8-1.7 17.5-3.5 11.6-2.2 11-2.1 34.5-6a265.7 265.7 0 0 1 11.4-1.6c32.2-4.6 68.5-7.6 98.3-8.1zm49.3 14.3a20 20 0 0 0-17 31.3c6.5 10.3 29 15.7 36-7 3.3-10.7-6.4-24-19-24.3zm-219.8 6.7c.6-.4 2.4.2 3.7 1.2.6.5 1 1.1.9 1.6-.2.9-.2.9-1.6-.1-3.2-2-3.6-2.3-3-2.7zm-7.2 2a73.4 73.4 0 0 1 9 4.6c1.5 1 2.5 1.4 3.2 1.3.8-.3 1 0 1 1 0 .7 0 1.5.2 1.9.4 1.1-.7.7-4-1.4-1.8-1.2-5.3-3.2-8-4.6l-4.6-2.4 1.4-.4c.6-.2 1-.2 1.8 0zm-10 1.9c1 0 3.4 1 7.2 2.8l7.8 3.6 5 2.7c1.3.8 2.8 1.4 3.2 1.4.7 0 1.6 1.5 1.6 2.4 0 .4-1.1 0-2-.7l-12.3-6.2c-6.1-3-11.1-5.6-11.1-5.8 0-.2.2-.2.5-.2zm-6 1.3a208.3 208.3 0 0 1 29.2 13.9c2.3.8 2.5 1 2.7 2.4l.6 3.2.3 1.6-3.2-2c-8.7-5.3-22-12.4-29.9-15.8-4.3-2-5-2.9-1-1.4 5.2 2 17.5 8.4 24.6 12.8 3.8 2.3 6.6 3.6 7 3.3.4-.5-.5-1.3-6-4.8-5-3.2-15.6-8.8-21.9-11.6-1.9-.8-2.8-1.5-2.4-1.6zm-10 2.4c1.3 0 14.3 6.1 21.5 10.1 2.8 1.6 8.9 4.7 13.4 7 6.2 3 8.4 4.3 8.6 5 .4 1.4-.9 1-4.8-1.3l-7-4.2a578.8 578.8 0 0 0-29.1-14.2c-3.8-1.6-4.6-2.4-2.6-2.4zm-4.9 1.5c-.2-.3 1 0 3.9 1.2 9.7 4 39.7 19.2 39.7 20 0 .3 0 .3-3.6-1.7l-16.5-8-18.6-8.8c-3-1.5-4.7-2.4-4.9-2.7zm-6.8 1.5c1.2 0 3.5 1 13.3 5.3a1681.9 1681.9 0 0 0 21.3 9.5l6.7 3c.6 0 14.7 7.8 15.5 8.7.5.6 1 1.9 1.2 3 .2 1 .2 1.9 0 1.9-.3 0-3-1.7-3-1.9h1c.9.3 1 .3.4-.4-1-1.2-4.3-3.4-10-6.7a285.1 285.1 0 0 0-46.4-21.8l-1-.5zm-4.6 1.5a344.8 344.8 0 0 1 57.4 26.5c.5.6.1.4-2-.7l-5-2.3a626.4 626.4 0 0 0-43.6-19.5c-5.4-2.4-7.3-3.5-6.8-4zm1 4.1c1 .3 40.4 18.9 46 21.6 5.5 2.8 16.2 8.8 17.2 9.8a5 5 0 0 1 1.2 2.8 12.8 12.8 0 0 0 1 3.4c-.5 0-7.6-4.8-7.4-5l2 .8 1.8.9-1.6-1.5c-1-.8-2.9-2-4.3-2.8l-5.7-3.4a472 472 0 0 0-49.9-23.4c-.3-.3-.7-1.2-.8-2-.2-1.2-.2-1.4.5-1.2zm2.5 8c.3 0 1.1.4 2 .8.7.5 1.2.8 1 .8-.2 0-1.1-.3-2-.8-.7-.4-1.2-.8-1-.8zm-.8 2.3 1.2.4 19.9 8.6c6.8 2.9 17.6 8 17.6 8.3 0 .2 0 .3-.3.3-.5 0-10.2-4.1-25.7-10.7l-8.6-3.5c-3.2-1.2-4.3-2-4.3-3 0-.3 0-.4.2-.4zm53.6 4.7c0-.4 2.9.8 3.8 1.4 1.8 1.4.7 1.3-1.6 0l-2.2-1.4zm-52 2.8a244.7 244.7 0 0 1 25 12l8.8 4.4c2.6 1.5 10 5.4 16.5 8.6 9.5 4.9 16 8.5 16 9l.5 1.4c.5 1.8-.2 1.9-1.9.2a256.5 256.5 0 0 0-34.6-18.6 630.5 630.5 0 0 0-26.6-11.4c-2.6-1.3-2.8-1.5-3.3-3.4a6.6 6.6 0 0 1-.4-2.2zm28.3 1.7c.4 0 5 2 5 2.2v.3l-5-2.5zm9 4.2c.3 0 1 .2 1.5.6.6.3 1 .6.7.6l-1.5-.6c-.6-.4-.9-.6-.6-.6zm18.2 2.6c.2-.2 3.7 1.9 3.7 2.2 0 .3 0 .3-2-1-1-.5-1.8-1-1.7-1.2zm-26.7.9a177.6 177.6 0 0 1 34.8 15.6l.8 2.6c.3 1 .5 2 .3 2-.4 0-2.7-1.3-7-4a364 364 0 0 0-21.5-12.1l-7.4-4.1zm-26 1.7a247 247 0 0 1 27.1 13.8 951 951 0 0 0 36 18c2.7 1.1 3.4 1.6 4.2 3 .5 1 1 2.1 1 2.7 0 1.1-1 1.2-2 0-3.5-3.8-39.5-23.2-54.7-29.4-10.6-4.3-10.6-4.3-11.2-6.2a5 5 0 0 1-.3-1.9zm16.3 3.3c.3 0 1 .2 1.5.6.6.3 1 .6.7.6-.3 0-1-.3-1.5-.6-.6-.4-.9-.6-.7-.6zm-11.4 4.3c.8-.3 9.3 3.5 22.2 10 12.2 6 19.7 10 20.6 10.7.7.6 0 .4-3.7-1.4l-10.5-5c-27.8-13.2-29.5-14-28.6-14.3zm22.4.7c1 0 34.6 16.8 36.9 18.5.7.5 1.1 1.1 1 1.5-.1.7-3-.7-17.2-8.7l-12-6.3c-4.7-2.2-9.5-5-8.7-5zm-24.6 1.4c.2-.1 2.5.9 5.2 2.3a284 284 0 0 0 17 8.2c.6.7-.4.4-3.5-1l-10.4-4.1c-6.2-2.4-7.5-3-8-4-.3-.6-.4-1.3-.3-1.4zm5.5 6 3.3 1c1.7.8 2.8 1.3 2.5 1.3-.8 0-6-2.1-5.8-2.3zm32 2.6c0-.2 1 .2 2.2.8a10 10 0 0 1 2.1 1.3c0 .3 0 .3-2.2-.9l-2-1.2zm-34.4 1.2h.7a798.6 798.6 0 0 0 30 14.6 430 430 0 0 1 17.4 8.5l7.9 4.6a213 213 0 0 1 11.6 7c.8.5 1.3 1.6 2 4 .2.8.3 1.4.1 1.3l-5.3-3.3a84.2 84.2 0 0 0-13.9-7.9c-1.2-.7-5.5-3-9.5-4.7a574.3 574.3 0 0 1-26.6-12.8c-1-1 2.4.4 15.2 5.9 7.5 3.3 17 8 24.2 12 9 5.2 14.3 7.8 12.7 6.5-3.4-2.9-13-8.8-22.7-14a347 347 0 0 0-37.3-15.9c-4.7-1.8-5.4-2.2-6-3.5-.8-1.5-1-2.2-.5-2.3zm10 1.7a488.6 488.6 0 0 1 54.1 27.2c1.7.7 2.4 1.3 2.8 2.2.7 1.6.4 1.7-1.5.4a267.6 267.6 0 0 0-40.9-22.2 93.4 93.4 0 0 1-14.4-7.6zm17.9 3.3c.4-.4 20.1 9.3 25.9 12.8 9.6 5.9 10 6.1 11.2 8.5a15 15 0 0 1 1.2 2.5c0 .1 0 .3-.2.3-.6 0-3.1-1.8-3.1-2.1 0-.4-7.3-6-11.6-9a332.5 332.5 0 0 0-23.4-13zm-25.3 2.9a126.5 126.5 0 0 1 13.2 6.5c1.7 1.1.5.8-3.4-1-2-.9-4.6-2-6-2.3-2.8-1-4.3-2-4-3 0-.1 0-.2.2-.2zm1.3 4.3a790.5 790.5 0 0 1 63.9 30.7c4.2 2.3 4.2 2.3 5 4.6.5 1.3.7 2.4.6 2.5a216.8 216.8 0 0 0-36.4-19.7 637 637 0 0 1-14.4-7c-4-2.2-9.6-5-12.4-6.4-5-2.6-6.7-3.7-6.7-4.5 0-.1.1-.2.4-.2zm49.4 3c.1-.1 9.1 4.5 10 5 .2.3.4.6.4.9 0 .7-1 .3-3.2-1.1a66 66 0 0 0-4.7-3c-1.4-1-2.6-1.7-2.5-1.8zm-47.8 1.6 1.9.8c.8.5 1.3.8 1 .8-.2 0-1-.3-1.9-.8-.8-.4-1.3-.8-1-.8zm.7 2.6 2 .8 17.6 8a1108 1108 0 0 1 42.6 21.3c5.7 3.1 6 3.3 7.1 5.4.5 1 .8 1.7.6 1.7-.2 0-2.2-1.3-4.5-2.7a555.9 555.9 0 0 0-60-28.9c-4.2-1.4-4.6-1.7-5-3.6-.3-1-.5-1.8-.4-2zm35.3 7.2c.2 0 .9.2 1.5.6.5.3.8.6.6.6l-1.5-.6c-.6-.4-.8-.6-.6-.6zm-32.3.8a455.6 455.6 0 0 0 30.7 14.8 314 314 0 0 1 30.6 15.8c7.6 5.2 9 6.6 10.3 10.5l.6 2-2.3-1.3c-1.1-.8-5.8-3.3-10.4-5.6a115 115 0 0 1-8.2-4.4l3.6 1.7c3.9 1.9 7.7 3.5 8 3.2.5-.5-37-19.8-47-24.1-12.3-5.4-17.3-8.1-13.6-7.4 1.2.2 23.4 10.6 33.8 15.9a290.1 290.1 0 0 0 28 13c.4-.3-7.3-4.4-23.9-12.7a585 585 0 0 0-34.2-16.4c-5.4-2.3-5.9-2.6-6.4-4-.1-.7 0-1 .4-1zm7.3 1.3c.1-.2 7 3 16.3 7.4l17.8 8.4c14 6.6 24.2 12.3 26.3 14.5.5.5.8 1.2.7 1.6 0 .4-1.1-.2-3.7-2.1-2-1.5-5-3.6-6.8-4.6a742 742 0 0 0-37.8-19c-7.2-3.3-13-6-12.8-6.2zm37.7 4.4.8.2a107 107 0 0 1 12.1 7.2c1.9 1.5.8.9-5.7-3-5.9-3.5-7.4-4.4-7.2-4.4zm-42.3 3.5 4.2 2.2 8.4 4.5c2.3 1.2 6 3.1 8 4.3 5 2.8 21.8 11.2 29.5 14.9 14.9 7 20.7 10.4 21.5 12.8.3 1 .3 1.5 0 1.8-.3.2-.2.4.5.5.5.2.9.6.9.9 0 .7.4.9-3.8-1.6-4.4-2.6-5.3-3.5-1.7-1.6 1.4.7 2.7 1.2 2.8 1.1a224 224 0 0 0-31.2-17.9 1070.5 1070.5 0 0 1-24.4-11.6l-5.9-2.8a84 84 0 0 0-6.1-2.7c-.7 0-2.2-2-2.4-3.4zm2.4 6 13.7 6.6c7.4 3.7 17.3 8.4 22 10.6 8 3.7 18.5 9.1 19.4 10 .8.7.1.4-7.8-3.6l-16.5-7.9a910 910 0 0 1-23.3-10.9c-5.5-2.2-7.7-3.5-7.7-4.1 0-.4.1-.7.2-.7zm5.1 5.6c.3 0 2.6 1 5.1 2.2l4.3 2.3c-.6 0-9.9-4.5-9.4-4.5zm241 .1c.2-.1 1.6.9 3 2.3 1.5 1.3 4.4 3.6 6.5 5 4.3 3 14.4 8.3 17 9.1 1.8.5 1.9.6 1.7 1.8a4739.5 4739.5 0 0 0-18 113.2c-.3 1.9-.5 4.5-.4 5.9.1 2.4.1 2.5 1.8 3.5 2 1.1 3.3 1.2 5.5.3 1-.3 13.3-6.4 27.4-13.4 14.2-7 26-12.6 26-12.5.2.2 0 1.5-.4 3a16803.3 16803.3 0 0 1-27.4 96.7l-7.8 27.8-10.2 36.4-4.2 15.2a1299 1299 0 0 0-11.4 44.3v-13.3c.2-7.6.4-42.5.4-77.6v-64l-1.2-1.1c-1.9-1.9-4.3-1.6-10.6 1.4a3231.6 3231.6 0 0 0-61 30.3c-.2-.1 0-1.5.1-3 .4-3.2 1.9-21.8 2.5-32.6a8882.9 8882.9 0 0 0 4.6-94.1l.3-6.6 4.3-1.5a40 40 0 0 0 12.3-6.1 102 102 0 0 0 22.3-22c2.8-4.3 9-16.7 10.9-21.7a208.8 208.8 0 0 0 6-26.7zm-221.2.5c-.2-.2 0-.2 1 .2 1.5.6 3.6 1.7 3.6 1.9 0 .2.2.3-2.4-.9-1.2-.5-2-1-2.2-1.2zm-22.4.6c.8 0 2.6.9 5.7 2.5l16.2 7.7a424.8 424.8 0 0 1 37.7 19.3c0 .3 0 .2-2.3-1l-11.9-5.4-26.5-12c-3.6-1.8-8.4-3.9-10.8-4.8-6.4-2.5-7-2.8-7.8-4.3-.8-1.4-1-2-.3-2zm2.4 6.4c1 0 8 3.3 13.6 6.3l15.2 8.3c5.5 3 13.7 7.2 18.2 9.5 13.1 6.5 16.2 8 16.2 8.5 0 1-1.1.5-8-3.4-4.2-2.3-10.6-5.7-14.5-7.5-7.8-3.6-15.3-7.3-30.5-15.3-9.2-4.8-11.8-6.4-10.2-6.4zm21.8 2.5c.3 0 1.3.5 2.4 1 1 .6 1.7 1 1.5 1a12 12 0 0 1-2.4-1c-1-.5-1.7-1-1.5-1zm7.3 3.4 1.9.8c.8.5 1.3.9 1 .9l-1.9-.9c-.8-.4-1.3-.8-1-.8zm-26 1.9c.4-.5 20.9 9.5 32 15.6a342 342 0 0 1 18.6 10.5 1110.6 1110.6 0 0 1-45-23c-3.2-1.6-5.7-3-5.6-3.1zm32.3 1c.7 0 17.8 8.8 23.3 12 5.6 3.2 7.9 4.8 7.9 5.5 0 .7-.6.4-4.5-2.1-4.5-3-15.4-9.2-16.8-9.8a86.3 86.3 0 0 1-9.9-5.5zm241.2 3.2 2 .2c1.1 0 3.6.5 5.5 1 2.8.7 5 1 11.6 1.2l8.2.2 2.1 4.9 3 6.5 1.8 4.3c3.6 8 8.9 19 15 31.1 10 20 19.2 37 29.5 54.4 2.6 4.3 5 8.2 5.1 8.7 7.1 12.2 26.7 42 36 54.5l5.3 7.3c3.3 4.7 20 26 27.5 34.5a21 21 0 0 1 3.5 4.9c0 1-1.5 2.7-2.3 2.7a291.6 291.6 0 0 1-17.9-20.1 91 91 0 0 0-5.2-6.2c-1.7-1.7-4.5-5-6.1-7.2a247.6 247.6 0 0 1-9.5-12.5l-5.8-7.8a224.2 224.2 0 0 1-12.3-18.3c-.4-.3-.8-1.1-.9-1.7-.2-.7-.4-1.2-.6-1-.1 0-1.5-1.8-3-4.2-1.5-2.3-4-6.2-5.7-8.5-3.5-5-5.3-7.8-7.6-11.9l-4.4-7.2A39 39 0 0 1 569 413c-.2.6-1 .7-1 0a249.2 249.2 0 0 1-7.8-14.3 97.6 97.6 0 0 0-4-7.6c-.8-1-2.3-4.1-3.6-6.9-1.2-2.7-3.2-6.7-4.3-8.7a264.7 264.7 0 0 1-6-11.3c0 .3.4 1.4 1 2.6 1.6 3.3 2 6 2.5 20.6.3 7.6.7 14 .8 14 .2.3 0-9-.3-19.5-.2-5.7-.2-8.3 0-8 .9.8 4.3 8 5.5 11.2.6 1.8 2 4.6 3 6.4 1 1.8 3 5.5 4.3 8.3 1.4 2.7 3.2 6.4 4.2 8 3.4 5.8 5.2 9.8 5.6 12.6.6 3.7.9 12.5 1.1 32.9.1 9.6.4 20 .6 23.3.7 10 1.7 48.3 1.8 71.5 0 9 .2 12.5.4 9.4.4-9.8-.5-62.2-1.4-76.2-.5-7.8-1.1-43-.8-45.3.4-2.4.7 3.1 1.3 20.2.3 8.5.8 15.4 1 15.4.2 0 .2-1.3.1-2.9l-.5-13.7c-.3-10.4-.6-15.8-2-28-.5-3.2-.7-6-.6-6.3 0-.3 1.8 2.2 3.9 5.5 3.4 5.5 3.7 6.2 4 9 .5 3.5 1.1 11.6 1.7 22 .4 6.6 1 15.8 1.5 21.4a1370.2 1370.2 0 0 0 1.7 30.5l.6 22 .7 19.7c0 .2.2 9.2.2 20 0 11.2.2 19.3.4 19 .5-.8.5-29.7 0-41.4L584 533a1543.1 1543.1 0 0 0-5-92.8c-.8-6.1-.7-6.3 1.4-2.7 1 1.8 3.2 5.2 5 7.6 1.7 2.5 4.2 6 5.4 8l4.3 6.6 2 3V479c0 9 .3 20 .5 24.8l.7 12.7c.5 9.2.6 62.2.2 71.8l-.6 10.8c-.2.8-.8 1-3.3 1.6-2.4.6-3 .7-3.4.3-.2-.5-.6-10.8-.5-15.6 1.3-50 1.2-56.1-.3-78.2a336.5 336.5 0 0 1-1-26.7c-.3-14.4-1-26.8-1.5-29l-.4-1.5.2 1.7.6 18.8a937 937 0 0 0 1.3 36c1.5 25.3 1.6 32.6 1 62.8-.3 11-.4 22.9-.3 26.4.3 6.1.3 6.2-.7 6.2-.8 0-.8-.1-.8-6.7 0-3.7.2-12.8.5-20.2.7-13.5.7-25.4.2-26-.2 0-.3 3-.3 7 0 3.9-.2 12.5-.5 19.2l-.4 19.4c0 8.4.2 7.8-4.6 9.3l-8 3a123 123 0 0 1-5.8 2.3c-.5.1-.9-2.9-1.4-10.7-.3-5 0-18.6.8-27.8.2-3 .3-8 .3-11.2V554l-.4 7.8-.7 12.5c-.8 8-.7 28.3.1 33.8.3 2 .3 2-.7 2.4L565 612l-2 1.1a274.8 274.8 0 0 0 .8-35.2c-.2 0-.4 5.3-.4 11.8-.1 10.2-.6 20.3-1.3 23.3-.1 1-1.7 2.2-7 5.4a71 71 0 0 0-4.9 3.5c-1 .8-2 1.3-2.1 1.2-.3-.1-.6.3-.9.8-.3.6-.8 1-1.2 1-.6 0-.7-.3-.4-2 .1-1.2 0-1.7-.2-1.1-.2.5-.4 1.4-.4 2.2 0 1.2-1.4 3.5-2.1 3.5-.2 0-.5-1.5-.6-3.2v-3.4l-.2 3.6v3.6l-4.4 4.5a56.7 56.7 0 0 0-12.6 17.3c-.6 2.4-.3 2.7.6.7 1.8-4.4 15.2-20.1 16.2-19.1.2.2.4 1.5.3 3 0 3 0 2.8-4.6 8.1a77.4 77.4 0 0 0-9.2 13.5 88.5 88.5 0 0 0-12.3 31.3c-.2 1-.6 2-1 2-.6 0-3.9-3.4-10.1-10.6a451.8 451.8 0 0 0-10-11.5l-7.8-9.3a131 131 0 0 1-11.7-14.7 2206.2 2206.2 0 0 0 31-101.2l7.1-24.8 14-48.3 12-41.8c3.2-11 5.8-20.6 5.8-21.4 0-1.5-1-3.5-1.9-3.9-2-.7-4.1.2-29 12.7a2247.2 2247.2 0 0 0-35.2 17.6l1.5-7.5a5281.9 5281.9 0 0 0 17.8-96.2zm-271.7.7c1 0 16.2 6.9 22.2 10.1 8.3 4.5 22.5 12 22.8 12 .5 0 7 3.9 7 4.2 0 .2-.2.4-.4.4l-7.1-3.7c-6.5-3.5-15.6-8-33.7-16.4-4.5-2-9-4.2-9.8-4.8-1.7-1-2.1-1.8-1-1.8zm25.3.1c.2 0 1.4.3 2.7 1l10 4.3c4 1.7 9.6 4.3 12.4 5.7 8.4 4.1 10.4 5.5 9.5 6.5-.7.9-1.1.8-4.2-1l-11.2-5.9c-11.3-6-19.4-10.4-19.2-10.6zm-24 4.2s5.8 2.5 12.8 5.9l16 7.6c3.8 1.8 3.8 2.2 0 .6-5.4-2.3-16-6.2-19.8-7.2-6.5-1.9-7.5-2.5-8.4-4.7a6 6 0 0 1-.7-2.2zm3.3 7.6c.4 0 3 1 5.7 2.2l5.3 2.4 10.2 4.2 10.2 4.3c.6 0 10.8 5.2 10.8 5.5 0 .6-.4.5-4-1.1l-10.8-4.7c-6.6-2.9-9.8-4.1-22.7-9.2-3.6-1.4-6.1-3.3-4.7-3.6zm8 1.8c-.6-.5 2.3.4 6.3 2l24.4 9.4c5.6 2.2 6.8 2.9 6.3 3.6-.5.9-1.6.6-6-1.7a447.1 447.1 0 0 0-31-13.3zm-6.8 1.7c.3-.3 5.5 1.8 22.2 9a90.7 90.7 0 0 1 16.7 7.7c0 .2-.5.6-1 .8l-1.7.6c-.3 0-4.3-1.9-9-4.1l-16.8-7.9c-8.1-3.8-11-5.5-10.4-6zm2.2 4.2s.9.2 1.8.7c1.9 1 1.5 1-.7.2-.7-.4-1.3-.7-1.1-.9zm42.5.2 2.6 1.1 3 1.7c0 .6-1.2.1-3.1-1a11 11 0 0 1-2.5-1.8zm-40.7 3.3c.7.1 2.2.7 5.2 1.8 4.3 1.5 23 10.6 23 11.2 0 .2-.8.7-1.8 1.2-2 1-2.8 1-4.2.2a431.7 431.7 0 0 1-18-8c-2.6-1.3-3.3-1.8-4-3.2-.5-1-.9-2.1-.9-2.6s0-.8.7-.6zm56.1.5c.2.1.5.4.8 1l.9 1.8c0 .4-.5.3-1.8-.4s-1.5-1.5-.5-2.3c.2-.2.4-.3.6-.1zm-1.8 3.3c2 .5 4.7 2.8 5.6 4.7.5 1 .9 2 .8 2.3-.1.2-1.8-.7-3.8-2.1l-4.2-3c-1.2-.7 0-.9 1.2-.2l1.3.4-1.2-.8c-1.6-.8-1.3-1.7.3-1.3zm-51.5 4.4c.3 0 2.8 1.3 5.6 2.8l8.2 4.3c1.6.9 3 1.7 3 1.9 0 .1-.5.5-1.3.7l-1.4.5-2-.9-6.1-2.5-4.3-1.7-1-2.5c-.8-1.6-1-2.6-.7-2.6zm61.9 1 4.4 4.6a135 135 0 0 1 4.3 4.6l-3.2-1.6c-2-1-3.2-1.9-3.6-2.8-1-1.7-2-4.6-2-4.7zm-17.2.3a59 59 0 0 1 9.6 5.6c.9.8-.5.2-5.3-2.2-4.8-2.4-6-3.4-4.3-3.4zm-20.6.7c1.2.3 3.3 1.4 3.3 1.6 0 .4-.6.2-2.5-.9-1-.5-1.4-.9-.8-.7zm27.1.7c.4 0 2 .7 4.8 2 3.4 1.5 4.5 2.5 5 4.6.4 1.3-.2 1.2-2.5-1a65 65 0 0 0-7.3-5.6zm-8.5.7c.3 0 2.7 1 5.3 2.3 2.5 1.3 6.1 2.9 7.8 3.7 3.9 1.6 6.8 3.3 6.8 3.8 0 .8-1.1.4-4.6-1.6-2-1.2-5.6-3-8.1-4.2-5.3-2.4-8-4-7.2-4zm-2 1.3c.4 0 5.9 2.5 12 5.5l11.1 5.6 1 2 1.3 2.7c.7 1.3.2 1.1-11.3-5.3a359.6 359.6 0 0 0-16.3-8.7c-.4-.3 1.4-1.8 2.2-1.8zm-37.8 2.2c.5-.2 7 2.3 8.4 3.2 1 .7 1 .7.3 1-2.6 1-7-.4-8.3-2.7-.5-.7-.6-1.4-.4-1.5zm33 .8c.7 0 2.6.8 6.4 2.6 5.7 3 11.4 6.2 16.5 9.5 8.4 5.3 10.6 7 10.6 8.3 0 .8-.4 1-1 .4l-2.8-1.3-15-7-16-7.6c-1.9-.8-3.3-1.7-3.3-1.9 0-.2.5-.6 1.3-1 1.3-.5 1.6-.3 10.3 4l11.2 6c2.2 1.4 6.4 3.2 7.2 3.2a287.9 287.9 0 0 1-6.7-4.2 96.5 96.5 0 0 0-6.4-3.6 96 96 0 0 1-12.7-7.1c0-.2.1-.3.3-.3zm30.1 1.7c1 0 7.3 3.5 10 5.6 3.6 2.7 17.8 9.8 23.5 11.6a106.8 106.8 0 0 0 60 2.8c.2.2 0 4.4-.2 9.5l-1.6 35.7c-2.3 58-2.8 85.1-1.7 91.3.6 3.2 1.2 3.9 3.4 3.5a788 788 0 0 0 53.2-24.6c7-3.4 12.9-6.2 13-6.1l.3 47a7271 7271 0 0 0 1 100.2v1.2l-1.2-1.5a281 281 0 0 1-8.5-11.2c-2.3-3-13.8-19-17.7-24.8l-4.5-6.5c-2.4-3.4-13.1-19.5-17.2-25.7l-5.2-8-11.1-17.5a839.8 839.8 0 0 1-7-11.6l-5.8-9.4c-1-1.7-1.3-2.4-1-2.5.4-.2 0-.9-1.1-2-2-2-12.3-19.5-11.9-20 .1 0 1.6.6 3.5 1.6l3.2 1.5-2.9-2c-5.1-3-5.7-3.6-9.4-10.4a163 163 0 0 0-4.2-7.6l-1.2-2.2-3-5.4-2.8-5.1-2.5-4.7c-1-1.6-2.3-4.3-3.2-6a166 166 0 0 1-10-19.6c-.9-.8-3.2-5.5-2.9-6a85.6 85.6 0 0 1-5.8-10.8l-4-8.2-2.7-5.4-7.7-16.2c-1.1-2.4-2-4.8-2-5.3s-.3-1.2-.7-1.5c-.3-.3-.5-.8-.4-1.3.2-.5-.3-1.5-1.5-3-1.4-1.5-1.8-2.3-1.6-3 0-.7 0-1.2-.4-1.4-.7-.3-2.8-4.4-2.5-5 0-.4-.2-1-.7-1.4-.4-.4-.8-1-.8-1.3 0-.5.4-.4 1.3.3 2.2 1.5 1.6-.1-.8-2.2-1.9-1.7-3.4-3.7-2.8-3.7l-.2-.9c-.3-.6-.3-.8 0-.8zm-37 2.6c1.3.1 5.2 1.9 14 6A1321.7 1321.7 0 0 0 311 378c1.8 1 1.8 1.1 4.1 6.2l2.8 6c.8 1.6 1.3 3 1.1 3.3-.1.3 0 .4.2.4s.5.3.6.7c.2.4.2.8.2.9a405.3 405.3 0 0 1-11.3-6.8c0-.4 2 .5 3.6 1.5l3.6 2 1.9 1-1.3-1.2c-3-2.6-17.2-10.7-25.9-14.7a644.9 644.9 0 0 0-30.3-13.5c0-.1.8-.5 1.7-.8 1.3-.4 2.1-.5 3.1-.1 3.8 1.2 26 12 33.4 16.2a65.4 65.4 0 0 0 12.5 6.2 329.5 329.5 0 0 0-44.8-23.1c-.8 0-.3-.8.7-1 .8-.3 1.9.1 4 1.2 6.1 3.1 28 13.8 32.4 15.6 2.5 1 4.9 2 5.3 1.9.3-.1-8.1-4.6-18.9-10a550.9 550.9 0 0 1-19.6-10c0-.2.2-.3.6-.2zm-15.3 5c1.3 0 5.9 2.3 26.2 12 12.5 6 26.7 13.4 32.8 17.3l4.9 3.1c2.4 1.5 2.8 2 4.2 5 .8 1.8 1.4 3.3 1.2 3.3a26 26 0 0 1-4.7-2.6 261.3 261.3 0 0 0-39.4-18.8 136.1 136.1 0 0 1-25.9-11.9c-1.3.4-3.3-1-4.2-3-1.5-3.5-1.5-3.6.4-3.6 1.4 0 2.6.5 5.7 2.3 4.6 2.7 24.7 12.8 30.2 15.2 2.1.8 9.6 4.6 16.7 8.2 7 3.7 12.8 6.5 12.9 6.5.4-.5-23.2-13.2-28.7-15.5-4.6-2-29.8-14.5-31.8-15.9-.9-.6-1.5-1.2-1.3-1.3.2-.2.3-.4.8-.4zm-2.6 9a59 59 0 0 1 6.8 3l6.8 3.2 6.7 3.6c3.5 2 10.2 5.5 14.7 7.9 16.3 8.6 21 11.2 27.2 14.9l9.5 5.4c4 2 5.4 3.2 5 4 0 .4 0 .7.2.7.5 0 2.2 2.6 2.7 4 .4 1 0 .9-3.7-1.3-1.9-1.1-5-2.7-7-3.6L315 412c-1.7-1-12-6-22.7-11-37-17.5-34.4-16.1-36.7-21a210 210 0 0 0-2.7-6.3zm29 1c1.3.3 5.1 2.2 5.1 2.5 0 .2.3.4-3.1-1.3-1.6-.8-2.5-1.3-2-1.2zm9.5 4.4c.9 0 14.4 7.2 15.5 8.3a156 156 0 0 1-15.6-8.3zm-33.5.8c-.4 0 .6.7 2 1.4l4 2.1 10.4 5a990.6 990.6 0 0 1 52.1 26.2c.6.1-2.2-1.7-4.8-3.2l-8.3-4.7a851.1 851.1 0 0 0-50.2-24.6 12.8 12.8 0 0 0-5.2-2.2zm23.8 5.8c2.5.5 21.7 9 26.3 11.6 9.8 5.4 17.7 10 18 10.4.3.3 1.1 1.8 1.9 3.3l1.3 2.8-4.2-2.8c-9-6-16.2-10.3-28-16.5a83.6 83.6 0 0 1-15.3-8.8zm-22.9.7a711.2 711.2 0 0 0 32.5 15.4 786.5 786.5 0 0 1 41 20.5c1.2 1 2.2 2.2 3.3 4.3.9 1.8 1.3 3 1 2.9-.4 0-2-.9-3.8-2a262.4 262.4 0 0 1-14.2-7.4 310.2 310.2 0 0 0-39.9-18.4l-10-4-5.6-1.9-2.2-4.5a22 22 0 0 1-2-4.9zm295.8 8.8c-.4 0-.3 2.3.8 23.5.4 6.8.8 14.1.8 16.3v4l.3-4.2a534.4 534.4 0 0 0-2-39.6zm-289.8 3.4a749.6 749.6 0 0 1 76 39.1c.8.8 4.4 7.2 5.6 10.2.5 1 0 .9-2.2-.6-1-.7-2.6-1.7-3.5-2.1l-2.5-1.7c-.5-.5-2.2-1.5-3.9-2.4a2379.7 2379.7 0 0 1-17.6-9.7c-5.2-2.9-21-10.5-28.4-13.5-8.8-3.8-17.4-8-18.6-8.9-.5-.5-1.5-2.1-2.2-3.6l-2.3-4.8c-.7-1.5-.8-2-.4-2zm6 .9c0-.1 3 1 6.6 2.6l13.7 5.8c4 1.7 12.6 5.8 19.2 9.2l19.5 10c7.4 3.7 9 4.8 9.7 7.2.3.6.3 1.2.2 1.2l-7.7-4.3c-17.4-10-32.9-18.2-49.7-26a215 215 0 0 1-11.6-5.7zm.3 13.1c.3-.2 8.1 2.7 13.2 5a620.7 620.7 0 0 1 56.8 28.6c4.7 2.5 7 4.5 8.3 7 1 2 1.1 2.2.3 2-.6-.3-.5 0 .6 1.1.8.8 2.3 3 3.4 5l3 5.5 2.8 5.3 2.5 4.7a450.2 450.2 0 0 0 5.6 9.9l.3 1c-.4.4-23.1-11.3-30.9-15.8-7-4.2-15.7-8.6-20.3-10.5-7.4-3.1-23-10.7-25.7-12.5-1.4-1-3-2.3-3.4-3-1.1-2-3.5-6.8-3.4-7 .3-.2 4 1.6 7.4 3.5A347 347 0 0 0 316 455l17.6 8.5c10.9 5.4 17 8.1 17.3 7.8.2-.2-22.4-11.5-40.1-20.1-6.1-3-16.7-8.6-17.3-9-.3-.4 2.6.8 21.3 9.1 7.7 3.4 16 7 18.4 8.2 2.5 1 7.1 3.3 10.4 5 5.9 3 7.4 3.7 7.4 3.4l-5-3c-5.3-3-9.5-5-17.2-8.3a1031.2 1031.2 0 0 1-33.5-14.8 554.4 554.4 0 0 1-11.5-4.9c-1.2-.3-6.5-10.3-5.5-10.3.3 0 .8.1.9.4a2822.3 2822.3 0 0 1 48.1 22.9l9.2 4.2 4.4 1.9c0-.7-18.6-10-38.5-19.2a29.6 29.6 0 0 1-5.7-3c1.2-.3 33.6 12.5 46 18.3 5.5 2.6 4.8 1.7-1-1.1a483.6 483.6 0 0 0-51.8-20.6c-2-.7-6-2.4-8.6-3.8l-4.8-2.6-2.8-5.6a43 43 0 0 1-2.6-5.8zm288.3 1.5.2 1.3c.2.9.5 7 .8 13.7a5318 5318 0 0 0 2.5 56.8c.4 0 .5-1 .3-3.5l-.7-13.5a3829.4 3829.4 0 0 1-1.5-37.5c-.3-9.7-.8-16.6-1.4-17.3h-.2zm-283.7 3.3v.2c1.3 1.3 5.8 3.5 13.7 6.6l11 4.3c7.2 3 17 7.7 27.7 13.6 9.2 5.1 12.4 6.7 11.4 5.9-.5-.5-6.8-4.2-12-7.1A219 219 0 0 0 296 426a143.5 143.5 0 0 1-20.2-8.6zm274.5 18.3.2 2.3-.3 9.7c-.2 4.1-.2 8.5 0 9.8.2 1.8.4-.2.6-8a74 74 0 0 0 0-12.1zm7.7 3v3.4c0 2 0 3.8.2 4.2.5 1.2.5.4.2-3.6zm5.7 9.4s-.2 1.4-.2 4.2c0 3.5.2 6.8.6 8.9.3 1.8.6 4.3.6 5.6 0 2 .1 2.1.4 1.2.4-1.1.2-3-.8-8.8a24 24 0 0 1-.3-5.5 36.3 36.3 0 0 0-.3-5.6zm-5.3.3.2 3.6.3 7.2v3.6l.2-4c0-2.2 0-5.5-.3-7.2zm-268.5 1.2c.3-.1 1.5.4 2.8 1.1 1.3.7 2 1.3 1.8 1.3-.7 0-5-2.3-4.6-2.4zm1.4 2.4c.8 0 42.4 19.9 59.2 28.3 16.7 8.3 19.4 9.9 20.2 11.7a449.8 449.8 0 0 1 8.7 15.3c.4 1-.4.7-4.5-1.7-5.5-3.3-13.2-7.4-24-13-18.3-9.3-52.6-27.8-53-28.4-.4-.7 1.3 0 8.3 3.2a1149 1149 0 0 0 26.3 12l13.8 6.2c4 2 8.9 4.2 8.4 3.8-.7-.8-12.6-6.7-19.3-9.7a4928 4928 0 0 1-32.6-14.6 51.8 51.8 0 0 1-6.1-3.2c-.8-.5-2.2-2.6-3.4-5-2.6-5-2.5-5-2-5zm261 .9h-.1c-.2.2.6 8.3.9 9.2.6 2 .4-1.8-.5-8-.1-.7-.3-1.2-.4-1.2zm-9.2 1.7c-.2.3-.3 4.1-.2 9.5 0 6.1.2 11.5.4 12 .1.6.5 5.8 1.3 18.9l.4 5c.7 5 1 13.6 1.3 30.8.3 18.6.5 25.4.8 35.6l.2 10.3c0 1.6.2 2.8.3 2.8v-13.8l-.7-35.3a712.5 712.5 0 0 0-2.8-52.8c-.3-4.2-.6-10.7-.6-14.4a80 80 0 0 0-.4-8.6zm10.2 8.2.2 3 .3 5.2v2.4l.2-2.8c0-1.5 0-3.9-.3-5.3zm-234.7.5c-.4-.3-.2-.3 1 .1 1.6.6 5.3 2.6 5.3 2.8 0 .3 0 .3-3.3-1.3l-3-1.6zm279.4 1.2c.3.2 1.4 1.8 2.5 3.5l2 3 .4 6.7c.4 6.3.5 11.8 1 44 0 7.2.3 19.4.6 27.1.5 12.1.5 15.7-.1 27.1-1 18.1-1.1 22-.7 21.6.2-.2.4-2 .6-4.2l.7-10.8c.5-7.5.8-45.9.4-44-.4 1.6-.9-11.4-.9-27.2 0-13.2-.3-25.5-1-35l-.3-3.3 1 1.1 2.5 3.2 1.4 2v5.1c0 6.6-.9 25.5-1.7 36.9l-.6 11.4c0 2.4.1 2.5.4.9.2-1 .6-5.3.9-9.6.2-4.3.6-9.1.8-10.8a350.3 350.3 0 0 0 .6 18.6c.4 8.7.5 15.4.2 19.6a86 86 0 0 0-.4 15.6 166.5 166.5 0 0 1 .5 26.8v3.9l-2.1.4-4.4 1-3 .6c-.7.2-.7 0-.5-1a905 905 0 0 0-.5-94.8c-.3-3.3-.6-39.8-.3-39.4zm-299.1 1.8 9.4 5a1608.7 1608.7 0 0 0 60 31.5c9.8 5.7 13 7.8 14 9.3a1440.1 1440.1 0 0 1 11.5 19.8s-1.9-1-4-2.5a342.6 342.6 0 0 0-40.8-23l-15.7-7.8c-19-9-23.8-11.6-24.7-13.2l-3.9-7.1-4.8-9c-1.4-2.5-1.6-3.3-1-3zm255 7.8c-.2.2.4 4.5.9 6.7.4 2 .5.5.1-2.5-.5-3.2-.7-4.3-1-4.2zm-246.3 3 .7.3c1.8.9 5.4 2.4 11.5 4.7 3.1 1.2 9.2 3.9 13.5 5.9l10.4 4.8 13.4 6.6 11 5.5a315.6 315.6 0 0 0-34-17.4 230.9 230.9 0 0 0-26.5-10.4zm301.6 4 1.3 1.4c.7.8 1.8 2.4 2.5 3.6 1 1.8 1.3 2.6 1.3 4.9a242 242 0 0 0-.9 27.3c0 12-.1 24.7-.4 28.4a732 732 0 0 1-3 34.3c-.5 2.3-.1-27.7.4-32.2 1-8.6 2.2-56.6 1.3-57.2-.5-.3-.8 7-.8 18.2 0 12.8-.4 26-.9 26-.6 0-.9-7.4-.8-19.8v-24zm-54.1 2.5c-.2.1-.4 3.3-.4 7.2 0 4 .2 7.4.3 7.4a87.5 87.5 0 0 0 0-14.6zm7.9 3c-.3.3.1 14 .8 23.4.2 3 .4 9.6.4 14.9a665 665 0 0 0 .8 21.6 800.3 800.3 0 0 0-2-59.9zm-14.3.8v.9c.2.7.5 4.1.8 7.6.3 3.5.7 5.7.7 5a74.5 74.5 0 0 0-1.5-13.5zm66.2 1.3 1.7 2 1.6 2 .2 12.4c0 6.8 0 14.3-.2 16.8-.3 3.9-.4 2.8-.7-8.7-.3-13.2-.4-15.2-1.2-14.8a36 36 0 0 0-.2 7.5 854.4 854.4 0 0 1-1 45.5l-.2 2.5-.2-2.5v-32.6zm-304 .1c.9 0 51.2 25 58.7 29.2 10.5 6 23.5 14.2 25.6 16.3.6.6 1.8 2.3 2.7 3.8a569.3 569.3 0 0 0 12.1 19.2l6.4 9.8 7.2 11a762.4 762.4 0 0 0 14.7 21.3c5.2 7.5 16.3 22.7 26 35.5l5 6.4.2 3.7c.5 7.2.8 8.7 1.5 9.7.8.8.9.9 1.5.2a5 5 0 0 0 1-2.3c.4-3.7.6-4.4 1-4.4.1 0 3.3 3.7 7 8.3a300.8 300.8 0 0 0 14.6 17.1 601 601 0 0 0 7.4 8.2c7.6 8.2 8.2 9 8.2 9.7a29 29 0 0 1-5.4 5.2 383.3 383.3 0 0 0-25 22c-2 1.7-3.8 3.2-4 3.2a297.2 297.2 0 0 1-25.3-26c-6.2-7-14-16-19.3-22.5l-5.5-6.7a1110 1110 0 0 1-26.7-35l-2-2.8-2-2.6-3.5-5.1a930.3 930.3 0 0 1-16.9-24.5l-3-4.5a1527.2 1527.2 0 0 1-47.6-77c-1.7-2.9-3.1-5.4-3-5.5.3-.3 8 3.4 29.3 14.1 23 11.6 37.5 18.7 36.8 18-.6-.5-8.8-5-11-6-1-.4-7.2-3.5-13.6-6.9a639.7 639.7 0 0 0-24.9-12.4c-1.3-.7-5.7-3-9.8-4.8-4-1.9-7.7-3.9-8.2-4.4a162.5 162.5 0 0 1-10.2-18.5zm308.5 5.8 1.2 1.5c2.5 2.7 2.5 2.7 2.7 15 .2 6.3.1 12.2 0 13.1-.3 1.4-.4 1.1-.5-1.9 0-4.6-1.2-19.4-1.3-17 0 1.2-.2 1.8-.6 1.8-.3 0-.7.4-.9 1v-5.4c0-3.6 0-6.1-.3-6-.2.2-.3-.3-.3-1zm-64.3 4.2v9.2c-.1 5 0 9.2.1 9.4l.4.2-.2-9.5zm68.8 1.8 2.6 3c2.4 3 2.6 3.3 2.6 5.2 0 2.5-.6 2.7-1 .3-.3-2-.9-2.9-2-2.9-.6 0-.8.2-.6.8a194.5 194.5 0 0 1 .3 22.3l-.2-1.7-.3 2c-.2 1.1-.3-.7-.4-5-.2-9.4-.3-14.5-.7-19.6zm6.4 7.5v4.5a1017 1017 0 0 0-1.2 32.2l-.7 22.7a61 61 0 0 1-.6 8c-.5 1.2-.4-20 0-29 .8-15 1.8-30.8 2.1-34.6zm-91.9 3v24.6c0 11.2.2 24 .4 28.6.3 5.5.3 13.5 0 24a329.8 329.8 0 0 0 .2 26.4c.1 0 .4-30.1.4-41.7v-41.4c0-5.5-.6-20.3-1-20.5zm94.8.2c.1 0 .4.2.8.7.5.6.5 1.8.4 6.5-.5 9.2-.9 9.5-1.1.9-.1-4.4-.2-8 0-8zm-11.7 4.5.2 1.7c.4 5.2 0 30-.6 40.2-.3 3.7-.6 12.7-.9 20l-.6 15.4c-.2 2.3-.2 2.3.4 1 .4-.7.6-2.6.6-4.8a385.6 385.6 0 0 0 1.3-23c.3-7 .8-12.6 1-12.6.6 0-.5 25.7-1.4 33.2a38 38 0 0 0-.2 6.4c.1 1.9.1 2.8-.3 3-.2.1-1.7.4-3.3.4-1.5 0-4 .2-5.4.4l-2.7.4v-3.7c0-2 .3-5 .7-6.6l1.6-11.3 1-8.4-.2 11.3c-.2 14.7.3 18.1 1 6.9.3-4.4.8-9.6 1.2-11.5l.6-3.4v4.5c0 2.5-.1 6.3-.3 8.7-.4 4.7 0 12.6.5 11.8.3-.5.8-5.5 1.4-14.3.1-2.3.4-4.2.6-4.3.3-.2.8 6.3.8 10 0 1.1.2 2.1.4 2.2.2.2.3-5.7.3-14 0-11.5.2-15.4.8-20 .6-4.4.8-10 1-24.2.2-11.5.3-15.7.5-15.4zm15.4.1.9 1c.8.6 1 1.3 1 3.7 0 3-.5 12.8-1.2 20.2l-1 11.8a545 545 0 0 1-1 9.9c0 1.1-.5 2.4-.8 2.7-.7.6-.8 1.2 0-8.3a331 331 0 0 0 1.8-34.4zm-9.6.6.2 1.4c0 2 0 8.7-.2 14.6l-.4 12-.2 1.3-.3-1c-.2-.7-.2-2.8 0-4.7l.5-14.8c.2-6.7.3-9.2.4-8.8zm-7.2.6v1.4a9 9 0 0 1-.3 2.8c-.3.6-.4.5-.4-.7 0-.8.2-2 .4-2.7.1-.6.2-.9.3-.8zm-64.5 1c-.2-.1-.2 6.2 0 14 .3 16.4.4 19.2 1.1 27.5.4 3.7.5 11.3.5 18.9 0 11.2 0 12.4.5 10.4.6-2.8 1.5-22 1.1-25.9l-.2-2.8-.3 4-.2 4.1-.5-6.1c-.9-9.8-1.4-21.4-1.5-33-.1-5.9-.3-10.9-.5-11zm84.4 1.6s.2 0 .3.2c.2 0 .3 1.7.2 3.5l-.2 3.4-.3-3.3c-.3-2.3-.2-3.5 0-3.8zm-8.1 1.4v6.1c0 4.4 0 10.6-.2 13.8-.3 5-.3 5.4-.6 3.6a175.2 175.2 0 0 1 .8-23.5zm10.8 1.6c.2 0 .4.7.4 1.4 0 .8-.2 1.7-.4 2-.3.5-.5.1-.5-1.3 0-1.2.3-2 .5-2zm2 2.1s.2 0 .3.2c.2 0 .2 1 .1 2l-.1 1.9-.3-1.9c-.3-1.3-.2-2 0-2.2zm-93 1.4-.1.6v2.3c0 1.1-.1 1.3-.4.9-.4-.5-.5.1-.6 2.3l-.1 5.5-.2 11.3-.4 20.6c-.5 15.6-.8 34.6-.5 30.6.3-3.2.3-3.1.4 1.5l.1 5.5c.3 3 .5-2.9.3-13.4-.1-6.6 0-17.3.2-23.7l.5-18.6c.1-7.7 1-22.8 1.3-23.3.1-.2 0-.8-.2-1.4l-.3-.7zm68 .8a109.5 109.5 0 0 1 0 14.8c-.1 2.2-.2.3-.2-6.3 0-5.4.1-9.1.3-8.5zm27.5.4.4.6c.1.3 0 1.5-.4 2.7l-.6 2v-2.6c-.1-1.9.2-3 .6-2.7zm-84.5 0c-.2 0-.1 2 .3 24.4.2 11.9.5 22.4.7 23.4.1 1 .3 1.8.4 1.7l-.2-11c-.3-5.9-.5-17-.6-24.5-.2-7.5-.3-13.8-.5-14zm60.8.6v2c-.1.6-.2 0-.2-1.1 0-1.2 0-1.6.2-1zm25.1 2.4c.5-.8.5 3.3 0 9.4 0 2.4-.4 4.3-.7 4.6-.4.4-.6.3-.6-.7 0-2.8 1-12.7 1.3-13.3zm21.8 2.1c.8 0 1.6.3 2.4.7a81.7 81.7 0 0 1 30.8 30c.4.8.3 1 0 1-.4 0-.9-.2-1.2-.6a174.5 174.5 0 0 0-17.4-12.5 128 128 0 0 0-20.8-9.7c-2.4-.7-2.8-1.4-1.5-3 3.3-4.3 5.4-6 7.7-5.9zm-47.2.4a48 48 0 0 1 .2 8.9c-.3 0-.4-7.3-.2-8.9zm-27 3.4c-.4-.4-.4 28.9-.1 31.8l.3-15c0-9.1 0-16.7-.2-16.8zm43.3.2v6.8l-.7 12.7c-.2 1.8-.8 4-1.2 4.8-1 1.9-1 1.4-.4-3.6l1-9.7c.8-7 1.1-10.5 1.3-11zm-14.3 1c.2.9.4 4.7.4 8.7v7c-.2 0-.3-.6-.3-1.3 0-.8 0-4.6-.2-8.6-.1-4 0-6.5.1-5.7zm19.3 5.7c.2-.2 0 3.8-.4 6.1-.1.8-.4 1.5-.6 1.7-.3.1-.4-.3-.2-1.2.7-4.6 1-6.5 1.2-6.6zm-85.5 2-.2 2.5a76.1 76.1 0 0 0 .2 12l.1-8.2-.1-6.3zm64 .3v3.8-3.8zm35.7.6c.8-.4 5 .5 5.8 1.3a203.2 203.2 0 0 1 18.9 9.1 106.9 106.9 0 0 1 28.1 23.2c4 8.7 7.9 17.3 7.9 17.8 0 .1-.3.3-.5.3-1.1 0-5.6-4.2-17.3-15.7a223.8 223.8 0 0 0-12.2-11.4 117.3 117.3 0 0 0-21-13.4l-5.3-2.2a7 7 0 0 0-2-.6 6 6 0 0 1-1.6-.6c-.6-.3-2-.7-3-.9-1.1-.1-2-.5-2-.8 0-.7 3.4-5.7 4.2-6.1zm-94 1.8.2.7c0 .6.3 3.3.3 6v4.8l.2-5.2c.1-3.3 0-5.5-.3-6l-.3-.3zm53.3 3.8zm13.1 2.5v1.5c-.1.4-.2 0-.2-.7 0-.9 0-1.2.2-.8zm22 2.3c.4 0 1 .1 1.5.4l2.5.6c.3 0 1.3.4 2.2.8l2 .9a75.2 75.2 0 0 1 16.8 9.1c4.7 2.8 10.6 7.8 18.8 15.9 9.2 9 13.4 13 16.5 15.2a95.5 95.5 0 0 1 15.2 15.7c.7 1 2.1 3.7 3.2 5.7a126 126 0 0 0 7.7 13.3l11.7 18.1c5.1 7.7 9.3 14.2 9.3 14.4 0 1.1-2.2.5-5.7-1.5a44.2 44.2 0 0 1-9.4-6.5c-6.7-5-17-14.1-31.2-27.5a143 143 0 0 0-21.7-16.8 172 172 0 0 0-18.6-9c-2.4-.7-9.5-4.3-12.5-6.4a117.5 117.5 0 0 1-17.2-13.9c-1.9-1.4-5.3-6.3-5.3-7.5 0-.6 1.4-3.3 3.6-6.5 2-3 4.2-6.7 5.1-8.3 1.8-3.4 3.4-5.5 4.4-6a2 2 0 0 1 1-.2zm-38.5.7v2.3c-.1.7-.2.1-.2-1.2 0-1.2 0-1.8.2-1.1zm10.1 1 .3 3.7c.3 2 .3 7.4.2 11.9-.2 7.9-.2 8.1-1.8 12.5-1.7 5-2 4.4-.9-2.5.3-2.2.7-6.7.9-10l.8-10.8zm7.6.3.1 3c0 2.1-.1 4.7-.3 5.7-.3 1.8-.4 1.7-.4-1.2a57.8 57.8 0 0 1 .6-7.5zm22.8 7c-2.6 0-3.7.8-3.7 2.6 0 2 2.7 7.4 4.7 9.6a139.2 139.2 0 0 0 26.2 20.9 64.4 64.4 0 0 1 8.6 5.6l8.6 7a509.6 509.6 0 0 0 13.5 11.3l4.8 4.4c2.3 2.3 3.1 2.8 4.6 3.1 3.8.6 5.2.2 6-1.6 1-2.8-2.5-7-16-19.3a3565.1 3565.1 0 0 0-27.1-24.7c-9.4-9-25-18.9-30.2-18.9zm-28.7 2.7v3.3c0 2.4 0 5.2-.2 6.1-.3 1.4-.4 1.1-.4-1.9a62.2 62.2 0 0 1 .6-7.5zm-30.2 1.7v5.4c.2 2.7.5 5 .7 4.8.3-.1.3-.6.3-1.1-.2-.5-.4-2.8-.5-5.1l-.5-4zm39.5 13c.4 0 1 .6 1.5 1.4a113.7 113.7 0 0 0 29.2 24.2l4.7 2.2a30 30 0 0 1 7.5 3.1l5.4 2.9c6 3 6.2 3.2 8.5 4.8 5.8 4 11.6 8.7 17.7 14.6l7.2 6.8 14.2 12.9a99.7 99.7 0 0 0 14.9 11.5c6.3 4.6 13.6 7 16.6 5.4.6-.3 1-.3 1.5.1.7.6 5.6 8 11.8 17.8l5.9 8.9 4.5 6.9-1 .7c-.7.7-1.7.8-4.6.8-2 0-4.2-.3-5-.6-.9-.3-2.1-.6-2.9-.6-1.5 0-2.6-.5-9-3.6a105 105 0 0 1-14.5-9.6l-13.2-9.7-7.4-5.4c-2.2-1.8-5.4-4-7-5.1l-15.1-9.6-4-2.6-2.2-1.6 2.8.3c6.7.7 11.4-3.1 11.4-9.3 0-2.8-1.8-6.9-3.8-8.6-2.7-2.3-4-2.8-7-2.8-2.6 0-3.2.1-4.8 1.2a9.7 9.7 0 0 0-4.3 8.2c0 2.3.3 3.2 1.5 5.7l1.5 3.2c0 .3-.8 0-1.5-.5l-5.7-4.2a313.6 313.6 0 0 1-15.7-11.5c-1-1-6-4.6-11.6-8.6a97.4 97.4 0 0 1-6.3-5l-6.6-5.5c-3.3-2.7-8.5-8-13-13a25.5 25.5 0 0 1-5.2-7.5c-1.6-3.1-1.8-6-.7-10.3.9-3.5 3.1-8.4 3.8-8.4zm-53 4.4c-.2 0-.1.3 0 1.1.2 1.5.6 8.9.6 12.9 0 1 .2 2 .3 2 .5 0 0-14.7-.6-15.5l-.4-.5zm-25.8 5.6-.3 1c-.1 1.1-.2 2.8 0 3.8 0 1 .2 1.7.3 1.7l.1-3.6-.1-2.9zm64 5.6.4 1.9c.6 3.8.6 3.8-4.5 4.4a170.6 170.6 0 0 0-54.4 17c-.1.1-.3-.7-.4-1.7l-.1-1.8v2c-.2 2-.2 2-3.2 4a190.3 190.3 0 0 0-15.3 11.6c-.3 0-.5-2.6-.3-4.7 0-.6.5-1.4 1-1.9l.8-.8-.3 1.7c-.3 2 .4 1 .8-1.2.3-1.9 1.5-2.6 1.5-.8 0 .6.2 1.4.4 1.8.3.4.4 0 .2-1.2-.3-1.8-.2-1.9 1.6-3.5 1-1 3.6-2.9 5.6-4.3 2.2-1.3 4.5-3 5.3-3.5.8-.6 1.7-1 2-1 .3.2.6 0 .6-.2 0-.7 5.3-3.8 6-3.6a67.5 67.5 0 0 1 15-6.4l4.7-1.7.4 1.5c.2.8.6 1.6 1 1.7.5.2 1.3-1.5 1.3-3 0-1 1.3-1.6 5-2.2 1.5-.3 1.7-.2 1.9.7.1 1 .1 1 .2 0 0-1.1.8-1.4 6-2.6 4-.8 4.4-.9 4.8-.2.4.8 1.3.9 1 0-.4-1 1.4-1.5 6.5-1.8zm-31.2 5.6c.3 0 .4.7.4 1.5s-.1 1.5-.4 1.5c-.2 0-.4-.7-.4-1.5s.2-1.5.4-1.5zm-41 .8-.1.3c-.2.9-.4 3.8-.4 6.3 0 6.3.3 5.2.5-2v-4.6zm86.5 7.9c.2-.3 2.4 1.9 2.4 2.3a193 193 0 0 0 34.3 30.3 498.2 498.2 0 0 0 35.7 25.4 282 282 0 0 1 21.3 14.5l9.7 7L749 700a59.7 59.7 0 0 0 26 12.4c2.6.9 7 .7 10.5-.2 1.6-.5 3.3-.9 3.8-.9.6 0 1.7 1 3.2 3A99.7 99.7 0 0 1 805 733l4.2 6.4c3.2 4.5 4.2 6.2 3.8 6.8-.3.5-7 .5-8.9 0l-3.8-1-3.6-1a174.1 174.1 0 0 0-8.5-3l-1.5-.5c-.4 0-2.1-.7-5.4-2.2a1158 1158 0 0 1-18-8.8l-6.8-4.6-7-5a127.2 127.2 0 0 1-10.2-8.3A298.8 298.8 0 0 1 720 694c-13.2-13-17.1-16.2-23.7-19.8l-4.7-2.6a52 52 0 0 0-15.7-5.5 31 31 0 0 1-9.5-3 59.5 59.5 0 0 1-23.3-20.6 85 85 0 0 1-2.1-12c-.4-2.9-2.2-8.8-3.6-12.1a27.4 27.4 0 0 1-2.2-5.5zm8 38.5c.2-.2 1.6 1 3 2.5a76 76 0 0 0 17 13.4 35 35 0 0 0 10.2 3.4c.8 0 2.1.3 3 .6l3.6.9c1.1.1 2.2.4 2.3.6a98 98 0 0 1 17.6 9.3c1 .8 7 6.6 13.3 13 10.2 10.2 15 14.7 24.2 22l3 2.5 1.5 1.2 3.5 2.6a182.4 182.4 0 0 0 35.1 19.4c.3 0 1 .3 1.3.6.5.4 1.2.6 1.5.6.4 0 1.2.3 2 .7.6.3 1.3.6 1.6.6.3 0 1.2.4 2.2.9 1 .4 2 .8 2.4.8a44.5 44.5 0 0 0 9.6 2.8l5.1 1c2.7.6 5.7.3 7-.6 1.9-1.2 2.5-.8 5 2.7a47.7 47.7 0 0 1 4.7 7.8 945 945 0 0 1 10.5 20.2c1.4 2.9 5 11.4 5 12 0 .5-3.7.3-6.1-.4l-4-1a34 34 0 0 1-9.6-3.8c-4-2.1-6.3-3.6-8.6-5.9-3.3-2.9-7.8-5-12.3-5.8-1-.1-2.3-.5-2.8-.7-.5-.3-2-.6-3.6-.8-1.5-.2-3.8-.6-5-1A95.1 95.1 0 0 1 771 766a374.9 374.9 0 0 1-19-13l-3-2.4-4.3-3.2c-3.1-2.4-20-18.9-30.7-30a239 239 0 0 0-10-10 106 106 0 0 0-16.5-12.1 318 318 0 0 0-12.7-6c-1.3-.4-5.4-2.3-9.2-4.2a39.8 39.8 0 0 1-10-6l-6.3-5.3a38 38 0 0 1-5.1-5l-2.1-2.3c-.2 0-.7-.5-1-1-.6-1-.6-1.3.2-4.7.5-2 1-4.9 1.1-6.4.2-1.5.5-2.9.7-3zm-3.4 16.5a87.6 87.6 0 0 0 14.1 15.1c4.4 4 4.6 4.2 6 4.7.5.2 1 .6 1 .8v.4c-1.2-.3-4.2-1.5-6.6-2.4-6.5-2.8-11-6.1-12.8-9.7a25 25 0 0 1-2-8.6c0-.2.2-.3.3-.3zm75.5 59.7c.3-.2 5.2 4.5 13 12.2 7.6 7.6 9 8.9 15.4 13.8 9.3 7.1 25.3 17.7 31.2 20.4 5.1 2.4 9 4 9.8 4a23 23 0 0 1 4.9 1.4l-2 2.2a12 12 0 0 0-2.8 12.4c.4 1.2 1.3 2.8 1.9 3.6 2.2 2.4 7.3 3.6 10 2.2.6-.4 1.4-.7 1.7-.7.9 0 4-3 4.9-4.7.6-1.2.8-2.4.8-4.7 0-2.8-.1-3.2-1.5-5.2-1.3-2-1.4-2.1-.6-2.2.9-.2 5.6 2.9 6.8 4.3a57.7 57.7 0 0 0 18.5 8.8c.6.2 2.4.6 4 .8l5.8 1 3.2.5 1.2 3.8c2.2 6.9 4.5 16.5 6.2 26.2.7 4.1 1.3 13 1 15.4-.2 2-.3 2.2-1.3 2.2-1.8 0-11.2-6.5-20.2-13.7-6.7-5.5-10.6-7.5-15.9-7.9-4.5-.4-7.3-1-9.4-1.9l-3.7-1.5a106.5 106.5 0 0 1-28-17.3l-5.3-4.2c-4.9-3.8-10.7-9.7-15.6-16l-4.1-5a88.3 88.3 0 0 1-12.7-18.6c0-1-7.7-16.6-10.7-21.6a97 97 0 0 0-4.5-6.9c-1.2-1.6-2-3-2-3zm24.3 51.4 1.6 1.7a121.9 121.9 0 0 0 20.5 22l5.1 4.3c10.8 9 17 12.9 27.6 17.6 9 4.1 8.4 3.9 13.7 4.2 4.5.3 5.5.5 8 1.6 1.6.7 4.9 2.9 7.3 4.8a84.6 84.6 0 0 0 15.3 10.5c.9.7 3.3 2 5.4 3l3.8 1.8-.3 2.5c-.4 3.7-1.1 5.9-2.2 6.6-1.4.9-7.4 1.1-10.6.4a88.7 88.7 0 0 1-12.7-4.3c-1.1-.5-3.7-1.3-9.7-3l-7.4-1.3c-7.4-1-14.6-3.4-21-7l-4.2-2.5a62.6 62.6 0 0 1-10-7.4 73.4 73.4 0 0 1-12.2-12.3c-7-9.8-8.5-12.6-8.6-15.3 0-2.1-1-4.7-3.1-7.3-1-1.3-2.2-3.2-2.6-4.3a195 195 0 0 1-3.5-15zm5.6 35a119.8 119.8 0 0 0 15.9 20c7 7 11.2 9.8 23.2 16.1 1.3.7 2.4 1.4 2.4 1.6 0 .7-7.4 2.3-16 3.6-5 .7-13.7.7-17 0-1.3-.2-3.6-1-5-1.8-2.3-1-3.1-1.8-4-3.3-1.2-1.8-1.3-2.5-1.5-6.3-.1-2.6 0-6.3.5-9.4.4-3 .7-8 .7-12.8 0-6.1.1-8.2.8-7.7z"/><path d="M807.4 158.1a34.4 34.4 0 0 0-35.7 34c0 6 .5 7.9 2.7 9.3 2 1.4 4.2 1.2 6-.6.8-.7 1.7-1.4 2.1-1.5.7-.3.8-.9.8-4.5 0-24.2 24.7-32.7 39.6-17.7 11.4 11.4 3 35-19 35-3.5 0-12.2-4-13.1-5.9-.5-.9-.9-1-2.5-1.1-1 0-2.4-.2-3-.4-.7-.2-1.7-.1-2.2.1-.5.3-9.1 8.8-19.1 19l-47.3 48.3c-43.5 44.5-78 80.2-99 102.5-17.9 19.1-21.7 23.5-21.7 24.6 0 .7 4.2 7.6 5.6 9.1 1.5 1.7 3.2 1.6 4 0a4 4 0 0 1 1.6-1.7c.5-.3 1.2-1 1.4-1.5.3-.6 1-1.3 1.8-1.5.6-.2 1.3-.8 1.4-1.3.5-1.3 7-8 8.9-8.8.9-.5 1.7-1.3 2-2 .2-.5 1.9-2.4 3.8-4.2 2-1.8 7.5-7.4 12.4-12.3a135.2 135.2 0 0 1 11.3-10.8c.7-1.2 4-4.7 32.2-33.2 26.7-27 36.3-36.9 64.6-65.9 15.6-16 31-31.8 34.4-35.1a94 94 0 0 1 7.4-7l1.5-1c6 2.2 12 4.2 18.5 3.6a35 35 0 0 0 32-26 34 34 0 0 0-33.4-41.5zM382 636.7c-.4 0-.8.2-1.3.5a1886.5 1886.5 0 0 0-61.2 65.8 335.6 335.6 0 0 0-11.7 13.6c-.2.2-2.4-1.3-5-3.5-6-5-14.6-11.4-15.7-11.7-1-.4-1.8 0-1.8.9 0 .3-.4.5-1 .5-.7 0-2 1.2-4.8 4.2a20.3 20.3 0 0 1-4.9 4.4c-.6 0-1 .5-1.1 1.3a35 35 0 0 1-5.3 6.8l-30.1 33a2887 2887 0 0 0-60.4 67.3 107 107 0 0 0-11.4 14.5c0 1.3 1.2.8 3.4-1.2 5.4-5 37-39 55.5-59.8 3.3-3.8 6.4-6.9 6.7-6.9.3 0 .4.2.2.6-.2.2-6.3 7.2-13.7 15.3L198 805a2584 2584 0 0 1-13 14.6c-7.4 8-15.6 17.4-16.5 18.8-.4.5-.5 1-.4 1.2.2.2 2.6-2 5.5-4.8l5-5-4 4.6c-5.1 5.7-5.7 6.5-5 7.1.7.7 2.6-1.3 20.5-20.9 29.1-31.7 46.5-50.4 47-50.4.3 0 .1.4-.4 1a35747.2 35747.2 0 0 0-51.6 56.8c-14.7 16.1-16 17.6-15 17.6.6 0 4.3-3.8 18.5-19.2a190 190 0 0 1 13.2-13.5 933 933 0 0 1-13.1 14.6c-12.5 13.8-16 18-16 18.6 0 .9 1.2.3 3.2-1.6 3-3 44.5-47.4 62-66.6 2.7-3 3.6-3.8 4-3.4.6.4.3.8-1 2.2a17450 17450 0 0 1-59.4 66c-6.3 7-7.4 8.5-6.4 8.5.5 0 12.6-13 40.5-43.7a688 688 0 0 1 28.7-31c1.1 0 .7.6-21.8 25.5l-14.3 15.7c-8 8.7-26.1 29-29.2 32.7-.4.6-.5.9-.1 1.3.4.3 1 0 2.7-1.6 2.3-2.2 23-25 40-43.9 20.4-22.6 25-27.5 25.4-27 .2.2 0 .7-.5 1.3L232 796.7l-17 18.9c-8.6 9.6-18.3 20.6-25 28.4-10.2 11.9-10.3 11.9-9.7 12.5.3.3 2-1.2 5.8-5.1 4.7-5 4.3-4.2-1 1.7-1.8 2-2.4 3.6-1.3 3.6.3 0 2-1.6 3.7-3.5l18-19.8 39.3-43.3c3.3-3.6 6.2-6.6 6.5-6.7 1.5-.3 0 1.8-6.3 8.7a5103.5 5103.5 0 0 0-51.1 56.9c-7.7 8.8-9 10.4-8.4 11 .6.5 8.4-7.9 42.6-45.7l9-10a174.3 174.3 0 0 1 17.2-18.4c.3 0 .5.2.4.4a6671.8 6671.8 0 0 0-41.4 46.2l-14.8 16.7c-8.2 9.2-9.3 10.6-8.8 11.2.4.3 3.1-2.5 15.8-16.2 14.6-16 49.8-54.7 50.9-56.1 0-.2.3 0 .6.3.4.3-.5 1.5-3.5 4.8a7173.5 7173.5 0 0 0-41.7 45.9c-20 22-22.4 24.8-21.3 24.8.9 0 6.4-5.7 21.7-22.7l12.1-13.1a3160.1 3160.1 0 0 0 34.5-37.6c.1 0 .3.2.3.4 0 .3-8.5 9.7-21.4 23.6-6.3 6.7-9.1 10-27.6 30.5-16 17.7-17.6 19.8-16.8 20.3.6.4 5.1-4.3 22.2-22.6 15.6-16.8 19.7-21.3 37.6-41.2 4.4-4.8 8-8.8 8.4-8.8.2 0 .6.1.7.3.1.2-6 7.2-13.6 15.6-36.2 40-52 57.7-52.2 58.5-.1.7.4.8 1.3 0a5532.8 5532.8 0 0 0 66.5-72.3c1.1 0 .2 1.4-4.2 6.2a31149.3 31149.3 0 0 1-56.1 62.3c-4.5 5-5.6 6.5-4.7 6.5.2 0 2.7-2.6 5.6-5.8l8.3-9 16.3-17.8c24.3-26.7 37-40.3 37.3-40.3.7 0 .5.5-1.1 2.3a7788 7788 0 0 1-35.3 38.4c-10.3 11-28.3 31.2-28.9 32.2-1 2 .9.7 4.1-2.6a2483 2483 0 0 0 44.5-48.5 3524 3524 0 0 0 13.7-15c4.2-4.6 5.8-6 5.5-4.5 0 .3-3.8 4.6-8.2 9.4l-22.4 24.5-22.5 24.6c-10 10.9-12.1 13.4-12.1 14 0 1.6-.7 2.3 31.6-32.3 23-24.7 24.8-26.7 23-24.4-.8 1-8 9-16.3 18l-21.2 23.2-10.5 11.7c-3 3.3-4 4.7-3.7 5 .3.3.7.3 1.3-.3a9107.5 9107.5 0 0 0 63.7-68.7c.9-1 1.6-1.5 1.6-1.2a73 73 0 0 1-6 7L256 822.1 241.7 838a811.7 811.7 0 0 0-32.2 36c0 .3.1.5.3.5.5 0 8.7-8.5 22.4-23.1l18.2-19.5c12.5-13.3 28.2-30.4 53.5-58a517.6 517.6 0 0 1 19.6-20.8c0-.7 7-8.4 8-8.9 1-.4 1.9-2.5 1.5-3.5-.1-.4-1-1.4-2-2.2a98.4 98.4 0 0 1-12-11.7c0-.3 4-4.9 9-10.2a9595.7 9595.7 0 0 0 46.3-50.9c12.2-13.4 16.1-17.9 16.1-18.7 0-.5-.6-1.6-1.3-2.6l-2.8-3.8c-2.1-2.9-3.2-4-4.3-3.9zM257.6 747.5c.1 0 .2 0 .2.2s-.3.6-.6 1c-.4.2-.7.2-.7 0s.3-.6.7-1l.4-.2zm6.6 6.8c.2-.1.4 0 .4.4s-.2.8-.4.9c-.3.1-.5 0-.5-.4 0-.3.2-.7.5-.9zm51.5 2.1c.1 0 .2 0 .3.2.2.2 0 .6-.4 1-.6.5-.8 0-.2-.9 0-.2.2-.3.3-.3zm-60 2.4c.2 0 .3.1.4.3.3.3.3.5 0 .7-.2.1-.5 0-.6-.2-.3-.5-.1-.8.2-.8zm-1.7 1.8c.5 0 1 .6.7 1.1-.2.3-.5.5-.7.5-.7 0-1-1-.5-1.4.2-.2.3-.2.5-.2zm-9 1.3c0 .1-.6 1.2-1.7 2.3-1.1 1.1-2 1.8-2 1.5 0-.7 3.2-4.2 3.6-3.8zm7.3.7c.2 0 .4.3.4.6 0 .7-.5.9-1 .4-.3-.3 0-1 .6-1zm4.2.5c.3-.1.5 0 .4.4-.1.3-.5.6-.8.7-.3.1-.5 0-.3-.4 0-.3.4-.6.7-.7zm-5.6 1.2c.3 0 .5.3.5.6s-.1.7-.3.8c-.5.3-1.4-.7-1-1.1.2-.3.5-.3.8-.3zm8 1.3c.2 0 .4 0 .4.5 0 .2-.3.5-.6.6-.3.2-.5 0-.4-.5 0-.4.3-.6.5-.6zm-9.8.7h.4c.3.5.2.8-.7 1.6-.7.5-1.2 1.2-1.2 1.4 0 .2-.2.6-.6.9-.4.3-.6.3-1 0-.5-.8 2-3.7 3-4zm4 .2.5.1c.3.2.3.5 0 1-.7.7-1.3.7-1.3 0s.4-1 .8-1zm8 .9c.3 0 .5 0 .5.4s-.3.7-.7.7c-.3 0-.6-.2-.5-.5.2-.4.5-.6.7-.6zm-9.8 1.2.4.1c.2.1 0 .6-.3 1-.4.4-.8.4-1 .2-.2-.4.4-1.1 1-1.3zm4.3.4h.3c.2.2.2.6 0 1-.2.7-.9.9-1.2.3-.3-.4.4-1 .9-1.3zm8 1c.3-.1.6 0 .6.4s-.3.7-.7.7c-.4 0-.6-.2-.5-.5.1-.4.4-.6.7-.7zm39.8.3c.2.2-.1.8-.7 1.4-1 1-1.7 1.4-1.7.7 0-.6 2.1-2.3 2.4-2zm-53.8.2c.5-.1.7.6-.1 1.5-.4.4-.9.8-1.1.8-.6 0-.3-1.2.5-1.9l.7-.4zm4 .7c.3 0 .5.3.5.5s-.2.5-.5.6c-.2 0-.5-.2-.5-.6 0-.4.3-.6.5-.5zm4 0h.5v1c-.3.6-1.6.8-1.6.2 0-.4.7-1 1.2-1.2zm4 .8c.2 0 .3 0 .5.2.3.3.3.6 0 .7-.2.2-.6 0-.7-.2-.3-.5 0-.8.3-.7zm-8.9.8c.4.2.2.6-.5 1.4-.8 1-1.1 1.1-1.4.7-.4-.7 1.2-2.3 2-2zm7.5.8c.3 0 .6.3.6.6 0 .8-1.1 1.7-1.5 1.1-.4-.5.2-1.7.9-1.7zm-5.5 1h.4c.1.1-.1.7-.5 1.3-.8 1.3-2.2 1.6-1.5.3a4 4 0 0 1 1.6-1.6zm43.7 1.1c.1 0 0 .3-.4.9l-1.3 1.2c-.4.1-.4 0 .1-.8.4-.5 1-1.1 1.3-1.2h.3zm-36 .5c.2 0 .3 0 .5.2.5.5.4.7 0 1.2-1 1.3-2 .5-1-.9l.5-.5zm-5.1.8c.8 0 .6 1-.3 1.8-.9.9-1.7 1-1.7.2 0-.7 1.3-2 2-2zm7.4 2c.2-.1.3 0 .6.2.4.3.4.6 0 1-.2.4-.6.6-.8.6-.6 0-.9-.9-.3-1.5.2-.2.3-.4.5-.4zm-4.6.3.3.1c.3.4.1.9-.8 1.9-1.2 1.3-1.3 1.3-1.6.7-.4-1 1.2-2.8 2-2.7zm-11 2c.2 0 .2.1.2.3 0 .3-1.8 2.4-17.7 20-10.9 12-17.1 18.7-14 15l4.4-5c4.3-4.9 23.8-27 25.3-29 .9-1 1.6-1.5 1.9-1.3zm18 0 .4.1c0 .2-.1.6-.5 1-.7.7-.7.7-.7 0 0-.5.4-1 .8-1.1zm-4.5.4c.6 0 .2 1.6-.5 2.2-1.7 1.6-2.5.3-.8-1.3.6-.5 1.1-1 1.3-1zm29.5.4c.1 0 .2 0 .3.2.2.1.1.4-.1.7-.3.3-.6.3-.8 0-.2-.4.2-.8.6-.9zm-27.2 2.3c.1.1-.2.8-.9 1.4-.8.8-1.1 1-1.1.5 0-.8 1.6-2.3 2-2zm24.5.8c.2.1 0 .7-.6 1.3-1 1-1.3.5-.3-.9.3-.4.7-.6 1-.4zm-22.4 1.5c.3 0 .5.3.5.6s-.3 1-.8 1.4c-.8.6-.8.6-1.1 0-.3-.8.5-2 1.4-2zm19.9 1.5v.3c-.2.7-1.1 1-1.1.5 0-.3.3-.6.6-.7h.5zm-17.7 1.2v.7c0 .6-.4 1.1-.7 1.2-.7.2-.7-1 .1-1.6.3-.3.5-.4.6-.3zm15.5 1.2c.1.1-.2.7-.8 1.2-.6.6-1.1.8-1.1.6 0-.5 1.6-2 2-1.8zm-11 2.3h.2c.3.1.4.5.4.8 0 .4-.1.8-.4.9-.3.2-.4-.2-.4-.9 0-.4 0-.8.2-.8zm-64.7 3.6c.2 0-.4.7-1.2 1.5-.8.8-1.5 1.5-1.7 1.5l1.3-1.5 1.6-1.5zm70 .2c0 .3-.5 1-1 1.5-.7.5-1.1.8-1.1.5 0-.2.4-.8 1-1.4.5-.4.8-.6 1-.6zm-71.2 9.4c0 .1-.7 1-1.7 2l-1.9 1.7 1.7-2c1-1 1.8-1.8 1.9-1.7zm-8 .3a312.1 312.1 0 0 1-9.4 10.4 188.9 188.9 0 0 1 9.4-10.4zm66 .7c.1 0-.4.7-1.2 1.5-.8.8-1.5 1.5-1.7 1.5l1.3-1.5 1.6-1.5zm-51.5 13.3c.2-.1 0 .4-1 1.4l-2 2.2c-.3 0 1.5-2.3 2.7-3.4l.3-.2zm-29.5 2.4-1.2 1.7a8 8 0 0 1-1.5 1.7l1.1-1.7a8 8 0 0 1 1.6-1.7z"/></g></svg>