<svg xmlns="http://www.w3.org/2000/svg" width="1024" height="394.1" viewBox="0 0 1024 394.1">
<style>
@keyframes logo-drop {
  0% {
    transform: scale(3);
    opacity: 0;
  }
}
#logo path {
  transform-box: fill-box;
  transform-origin: center;
  animation: logo-drop 0.5s 1s both;
  animation-delay: calc(0.25s + var(--delay) * 0.0125s);
}
#logo path:nth-child(1) { --delay: 1; }
#logo path:nth-child(2) { --delay: 2; }
#logo path:nth-child(3) { --delay: 3; }
#logo path:nth-child(4) { --delay: 4; }
#logo path:nth-child(5) { --delay: 5; }
#logo path:nth-child(6) { --delay: 6; }
#logo path:nth-child(7) { --delay: 7; }
#logo path:nth-child(8) { --delay: 8; }
#logo path:nth-child(9) { --delay: 9; }
#logo path:nth-child(10) { --delay: 10; }
#logo path:nth-child(11) { --delay: 11; }
#logo path:nth-child(12) { --delay: 12; }
#logo path:nth-child(13) { --delay: 13; }
#logo path:nth-child(14) { --delay: 14; }
#logo path:nth-child(15) { --delay: 15; }
#logo path:nth-child(16) { --delay: 16; }
#logo path:nth-child(17) { --delay: 17; }
#logo path:nth-child(18) { --delay: 18; }
#logo path:nth-child(19) { --delay: 19; }
#logo path:nth-child(20) { --delay: 20; }
#logo path:nth-child(21) { --delay: 21; }
#logo path:nth-child(22) { --delay: 22; }
#logo path:nth-child(23) { --delay: 23; }
#logo path:nth-child(24) { --delay: 24; }
#logo path:nth-child(25) { --delay: 25; }
#logo path:nth-child(26) { --delay: 26; }
#logo path:nth-child(27) { --delay: 27; }
.logo-title { fill: var(--title, #282525); }
.logo-subtitle { fill: var(--alt, #69101f); }
</style>
<g id="logo">
<path class="logo-title" d="M.2 394c-.1-.2-.2-11.4-.2-25 0-20.5 0-24.7.4-25.2.3-.4 1.4-.8 2.8-1.2l2.4-.6.2-56.3c.2-30.9.2-93.2.2-138.5-.1-74.5-.2-82.3-.6-83-.4-.5-1-.8-2.7-1.1l-2.2-.5-.3-8C0 44.8.1 9.6.4 9c.1-.2 4.4.8 15.4 3.5 14.1 3.6 15.2 4 15.6 4.6.2.6.3 7 .4 25.2.1 23.8 0 24.5-.5 24.9a2 2 0 0 1-1.3.2l-1.5-.3c-.4 0-.9.1-1.1.4-.5.4-.5 12.6-.4 134.3 0 125.7 0 134 .6 134.5.5.4.8.4 5-.5 2.6-.6 5-1.3 5.3-1.6l.6-.5.2-40.8c.1-35.8.2-41 .6-41.3.5-.5 13.3-2 14.2-1.8.2.1.5.5.6 1 .2.3.3 16.9.3 40.5V331l-.9 3.2a1484.5 1484.5 0 0 0-12.3 46.3c-.5 1.6 0 1.3-8 3.7l-8.1 2.4-5.9 1.8-3.6 1.1a2987.4 2987.4 0 0 1-13.4 4.2c-.8.4-1.7.4-2 .1z"/>
<path class="logo-title" d="M58.6 377c-.2-.1-.2-10.4-.2-22.8 0-18.3 0-22.7.3-23l2-.6a5 5 0 0 0 2-.8c.5-.4.7-2.3 1-8.5a10399.2 10399.2 0 0 1 5.5-123.5 7302.2 7302.2 0 0 0 3.2-71.2l.5-12 .6-15.9c.8-20.7 1-24.1 1.5-28l4.2-28.3c1.6-10.9 1.9-12.4 2.5-12.7.6-.2 9.4 1.9 9.8 2.3a29 29 0 0 1 2 8.5c1.1 8 1.5 10.4 4.3 27.4a130 130 0 0 1 2 16.8 939.4 939.4 0 0 0 1.5 29.6 14802.2 14802.2 0 0 0 3.3 65l1.4 25.9.4 8.6a2270.7 2270.7 0 0 1 1.5 29.6 7139.7 7139.7 0 0 1 2.1 43.4l.7 13.6c.6 15.2.9 18.8 1.2 19.4.3.5.5.6 2 .4 1-.2 1.7 0 2 .1.4.4.5 3 .5 20.4 0 15.5 0 20.2-.4 20.8-.4.7-2.2 1.4-6.7 2.4L96 367.2l-3.3 1c-.6 0-2 .4-3 .7-1.2.3-2.2.4-2.3.3-.2-.1-.3-9.9-.4-21.7 0-24.4-.3-22.3 2.6-22.8 2.6-.3 2.7-.4 2.6-4.9l-.4-10.6-1.2-29.2c-.3-8.1-.7-13.3-1-13.6 0-.2-2.2 0-4.8.3l-4.5.5-.4 1c-.2.5-.5 4-.8 9l-.6 14.1c-1.5 31.6-1.7 35-1.3 35.5.3.2 1 .2 2.5 0 1.9-.4 2.3-.4 2.5 0 .3.4.3 42.3 0 43.3 0 .4-.3.8-.6.9l-7 2-4 1a558.3 558.3 0 0 0-9.2 2.6c-2.5.6-2.7.7-3 .4zm28.8-159.5c.2-.2.2-2 .1-3.9l-.5-10-.5-12-.7-14c-.3-7.7-.4-8.4-.8-7.4-.2.6-.5 3-.6 6.5L83 203.2c-.7 12.6-.7 14.3-.2 14.7.6.4 4.3 0 4.6-.4z"/>
<path class="logo-title" d="M150.8 352.5a1126.9 1126.9 0 0 1-9-26.6l-2.8-8-.8-2.7-.3-47a29029 29029 0 0 0-1.5-180v-7.8l1.8-5.5 6-19.2a340 340 0 0 1 4.7-14.3c.7-1 .6-1 13 1.4.8.1 1.6.5 1.8.8a71 71 0 0 1 4 9.3c1.7 4.7 2.3 5.7 2.8 5.2.1-.2.8-2.8 1.4-5.9 1.3-6.5 1.5-7 2.5-7 1.8 0 7.5 1.2 7.8 1.7.5.7.7 7.7 1.2 49l.7 53.4c.2 12.4.2 17.4 0 17.9-.3.6-.5.6-7.8.4-5.5-.1-7.5-.3-7.8-.6-.4-.4-.6-9-1.2-65.3a82 82 0 0 0-.7-17c-.3-.3-2-.6-4.4-1-3.4-.3-4-.3-4.3 0-.5.5-.4 15.3.5 96a15584.3 15584.3 0 0 1 1.2 131.2c.2.4.7.4 2.8.1 6-.9 6.3-1 6.6-1.7.2-.4.2-17.2 0-40.6-.2-33.2-.2-39.9.1-40.2.3-.3 2.5-.5 7.8-.8 6.5-.4 7.4-.4 7.7 0 .5.6.7 20.1.7 53v27.1l-2.2 6.7a956.5 956.5 0 0 0-11 34c-.4.6-1 .8-5 1.6l-3.5.8-4.1 1a670 670 0 0 0-6.9 1.3c-1.3.2-1.4.1-1.8-.7z"/>
<path class="logo-title" d="M189.2 345.2c-.2 0-.2-8.6-.2-18.8 0-14.8 0-18.7.4-19 .2-.2 1-.4 2-.5.8-.2 1.7-.4 2-.6.4-.5.6-2.4 1.2-15.7.8-19.1 1.6-34 2.5-52.8a8298.5 8298.5 0 0 0 4.3-93l1-25.2.8-20.1c.3-10 .6-12.7 2.7-23.1a774 774 0 0 0 4-22.9c.4-1.6.2-1.6 5.6-.7 5.2.8 5.2.8 5.5 1.7a2225.7 2225.7 0 0 0 6.9 33.2c.9 4 1 5.5 1.9 18.6l.6 9.7.6 9.8 2.2 34.2 1.3 17.5.4 6.6.6 9 .8 11.6c1.5 22 2.2 33 3.1 48.8l1 14.7.7 13a113 113 0 0 0 1.4 18.2c.3.3.8.4 2.1.2 1.6-.2 1.8-.1 2 .4.5.8.5 33.7.1 34.6-.3.6-1.2.8-9.5 2.2l-7.7 1.4c-5.5 1-10 1.8-10.7 1.7-.5 0-.7-.3-.9-1.3-.1-.6-.2-8.8-.2-18v-16.8l.6-.5c.4-.3 1-.5 1.5-.5 1.4 0 3-.6 3.1-1.2.1-.3 0-4.1-.3-8.5l-.7-13.7-.7-14.4c-.6-10.7-.7-11.7-1.3-12-.3-.2-2.4-.1-4.7 0-3.2.3-4.3.5-4.7 1-.4.4-.6 2.6-1.3 16.5-1.4 28-1.6 31-1.5 32.3l.2 1.4 2.3-.1c1.8-.1 2.5 0 2.7.3.1.2.2 8.5.2 18.5v18l-.6.3-2.7.6a69.7 69.7 0 0 0-7.7 1.5l-7.2 1.4c-4 .8-5.4.9-5.7.5zM216.7 211c1-.2 1.1-1 .7-6.5a2084.1 2084.1 0 0 1-1.5-23.8l-.5-8c-.2-3.3-.3-3.6-.6-2.9-.4.7-.5 2.3-1.4 18.9-.9 18.2-1 21.5-.6 22s2.6.7 4 .3z"/>
<path class="logo-title" d="M246.6 57c-.6.6-.1 35.6.5 36.4.2.3 1.3.6 2.7.8 1.3.1 2.5.3 2.6.5a9144.2 9144.2 0 0 0 1 50.6c1 46.6 1.2 61.1 1.6 94.6.6 43 .6 56.4 0 56.8-.2.2-1.3.5-2.5.6l-2.4.5c-.3.3-.3 34.3 0 35 .2.5.4.6 1 .5a3051.1 3051.1 0 0 1 30.4-4.8c.8-.4.9-2.6.6-18.9l-.2-15.1h-2.3c-1.3 0-2.4-.1-2.6-.3-.2-.2-.2.3-.7-38.9-.1-16.2-.4-32.8-.5-37-.1-6.9-.1-7.6.4-8 .4-.5 1.1-.6 4.7-.6 3 0 4.2 0 4.4.4.3.4.6 20.8 1 56.4l.2 27.7 1.3 4.2 2 7.3 1.3 5.1a1668.7 1668.7 0 0 0 3.9 14.3c.4 1.2.5 1.3 1.5 1.3 2 0 12.3-1.5 12.7-1.8.2-.2.4-.8.4-1.3v-18.4c0-9.3-.1-12.6-.4-13-.2-.1-.8-.3-1.3-.3s-1.1-.2-1.3-.4c-.3-.3-.5-7-.7-26.5l-.5-39.1-.2-13-3.7-7.7c-2.3-4.7-3.7-8-3.7-8.5 0-.6.5-1.7 1.3-3 4.2-6.3 5.3-8.1 5.4-8.7.3-1.1-1-67.8-1.5-80.4l-.3-6-3.3-7.1c-3.6-7.6-9.5-20.8-11.4-25.3-1.6-3.9-1.8-4-4.1-4.3-11.6-1.8-37-5-37.3-4.6zm28.7 39.7c2.6 0 7.4.5 8 1 .5.5.7 7 1.5 52.9.1 9.8.4 19.9.5 22.4a17 17 0 0 1-.2 5.2c-.3.6-.6.7-4.7.7-5.4 0-5.3 0-5.3-4l-.4-23c-.8-35.8-1.1-54.7-1-55l1.6-.2z"/>
<path class="logo-title" d="m309.6 322.3.4 1c.4 1.7.7 2 2.1 1.8.7-.2 6.6-.8 13.2-1.6 6.6-.7 12-1.5 12.3-1.7.3-.3.4-2.8.4-15.7 0-10.5 0-15.6-.3-16-.3-.6-.6-.6-3.3-.5-2.2 0-3.1 0-3.4-.3-.3-.3-.5-4.3-.6-17.9a13120.7 13120.7 0 0 0-1.2-90.7l.2-1.4.2 1.5.5 3.5 1.6 10.9.6 4 1.2 8.2 2.4 16.8 7.4 54.4c1.3 10.5.6 7.2 7.6 36.8.6 2.5 1.2 4.7 1.4 5a196.6 196.6 0 0 0 10.3-.7c.8-.3 1.3-1.3 1.5-3.3l2.2-15 2-13.7v-11c0-19.5-1.2-77-2.7-133.7-.7-31-.8-39.6-.4-40l3.5-.2h3v-8.3a199 199 0 0 0-1-23c-.1-.2-5-.7-11.9-1.3L345.7 69c-1.5-.2-1.6-.2-2 .4-.2.6-.2 4 0 15.7.2 8.2.5 15.2.7 15.6.3.8 1.4 1 4.3 1 2.7 0 2.6-.6 3 14a8084.1 8084.1 0 0 1 1.2 65.9l-.3 1-.3-1.5c-.2-.8-.6-2.8-.8-4.5l-.8-4.8-1.5-9.9-.6-4a269.3 269.3 0 0 1-2-13.4l-.7-5-1-7.2-2.7-17.4-.9-6.3-1.4-11a88 88 0 0 0-2.3-12.8l-2.5-7.7-2.1-6.8c-.9-2.8-.1-2.5-13-3.8-9.1-1-11.8-1.1-12.2-.8-.5.4-.5-.3-.2 16.6.2 13.6.3 15.7.8 16.5.2.2 1.2.5 2.9.6 1.4.1 2.7.3 3 .5.4.5.7 4 .7 10.6l.3 16.7c.3 10.8.6 22 1.4 63.8 1.2 64 1.6 98.4 1.1 99.3-.3.6-.7.7-3.3.9-1.7 0-3.3.3-3.7.5l-.8.4-.1 12.7z"/>
<path class="logo-title" d="M379 318.4a379.7 379.7 0 0 1 .2-31.2c.2-.3 1.2-.4 2.4-.4 1.5 0 2-.1 2.4-.5.3-.4.3-5.5 0-29.2l-.6-41-1.6-64-.6-22.4-.3-15.6a55 55 0 0 0-.2-7c-.3-.7-.5-.8-2.8-1-1.3 0-2.5-.3-2.7-.5-.1-.2-.4-6-.6-13-.5-20-.5-19.5-.1-19.9.3-.3 2.1-.3 8.6.2 21.3 1.3 22.2 1.4 22.5 1.8.3.3.4 2.8.6 6.6l.4 15.3c.2 7 .2 9.4 0 10-.4.7-.6.7-2.4.6-2.9 0-2.8-.1-2.6 6l.5 17.4 1.2 47.5c.6 22.6 1.2 53 1.6 79.5.1 14.6.4 26.9.6 27.3.2.6.4.7 2.6.7l2.3.1.3 14.5v15.4l-.3 1-2.6.2-14.2 1c-6.4.4-12.2.8-13 1-1.1 0-1.4 0-1.6-.4z"/>
<path class="logo-title" d="m426.4 313.6-1.4-3.1-9.5-21.4-2-4.6-.2-13.7a6457.1 6457.1 0 0 0-2.7-126.7 9226.3 9226.3 0 0 0-1-35.5v-4.8l2.2-5.2c1.2-2.8 4-9.4 6-14.5a103 103 0 0 1 4.5-9.8c.3-.2 1-.3 2-.2l6.8.3c6 .2 5.8.1 7.5 3.1a174.3 174.3 0 0 1 3.4 6c.6 1 1.2 2 1.4 2 .4 0 .7-1 2.1-6.4a17 17 0 0 1 1.1-3.5c.2-.3 1.5-.4 4.3-.4 3.5 0 4 0 4.5.5.5.6.7 4.7 1.4 31.5a6588 6588 0 0 0 1.5 53.3 42 42 0 0 1 0 8.9 68 68 0 0 1-15.7 0c-.3-.5-.5-5.4-1.2-30-.7-28-1-33.6-1.4-34-.2-.3-1.5-.4-4.4-.6-3.5 0-4 0-4.4.4-.5.6-.4 6.2.5 38 1.2 38.4 2.3 90 2.7 120.5.2 15.6.3 19 .7 19.3.3.5.9.5 4.6.4 3-.1 4.3-.3 4.5-.6.2-.4 0-21.6-.4-40.5l-.3-18v-5.8h16l.2 4c.2 5.4.7 33.1.8 48.4l.1 12.4-3.1 7c-1.7 3.8-4.5 10-6.1 13.9-3.9 9-4 9.2-4.7 9.3-.7.2-14.9.8-17.9.8-1.7 0-2 0-2.4-.7z"/>
<path class="logo-title" d="M463.4 313 463 298c0-16.3-.2-15.2 2.4-15.2.7 0 1.4-.2 1.6-.5.3-.3.3-4.5 0-19a9835.7 9835.7 0 0 1-1.2-64.6 7424.4 7424.4 0 0 0-2.8-90c-.2-.2-.9-.4-1.8-.4-1.2 0-1.5-.1-1.8-.7a63 63 0 0 1-.8-12.3l-.4-15.3c0-3.3.1-3.7.6-3.9l16 .2 26.4.3h11.2l.4.6c.4.7.5 2.8 1.4 35.3l.6 23.2c.2 7.3.3 13.5.2 13.9-.2.4-1 .4-7.8.4l-7.7-.1-.2-2c-.2-1.5-1.2-34-1.2-37.4 0-.4-.2-1-.6-1.3-.5-.6-1-.6-6.4-.6-5.8 0-6 0-6.4.7-.3.5-.4 1.2-.3 2.6l.5 15.5c1 38.2 1.3 49.2 1.7 49.7.4.4 1 .4 3.8.4l3.4-.1V158.7c.1-.6 12.7-.6 13 0a9507.6 9507.6 0 0 0 1.6 60c.2 7.4.2 11.8 0 12.3l-.3.8h-6c-5 0-6-.1-6.4-.5-.2-.3-.4-2.8-.5-8.8 0-4.6-.3-8.9-.4-9.4l-.3-1h-6.9l-.2.9c-.2.4-.3 4.7-.1 10.9a4874.6 4874.6 0 0 1 1.2 57.9l.3.8h12.7l.3-.8c.2-.5.2-7.8 0-20.6a136 136 0 0 1 0-20.2c.3-.4 1.3-.5 7.6-.4 5.9 0 7.2.2 7.6.5.4.4.5 3.6.8 19l.3 28v9.5l-1.2 3-3 7.4-2.2 4.7c-.3.2-7 .4-24.3.5-21 .2-24 .2-24.1-.2z"/>
<path class="logo-title" d="m571 315.2-4.2-.3c-.4 0-1-1.5-3.4-10.4l-4.2-14.8-1.7-5.8-.3-23.7a4583.7 4583.7 0 0 0-1-48.6c0-3.3-.1-3.4-5-3.4-2.1 0-4 .1-4.3.3-.5.3-.5 1.5 0 23.4l.6 32.2c.2 13 .4 19.3.7 19.6.2.2 1 .4 2.4.4 1.7 0 2 0 2.4.5.1.4.3 5.7.3 15 0 15.9 0 15.2-2 14.9l-15.4-.5-14.4-.5c-.3-.3-.7-28.2-.5-29.2.2-.8.3-.8 2.6-.8 1.6 0 2.5-.2 2.7-.4.4-.5.1-23.8-.5-52.8a7254.8 7254.8 0 0 0-2.2-85.6l-.6-22.8c-.2-7-.5-13-.6-13.2-.2-.5-.7-.6-2.5-.6-1.6 0-2.4-.1-2.7-.4-.5-.5-.5-2.4-1-21.5l-.2-8 .7-.4a97 97 0 0 1 17.5-.6l19.1-.4c2.3-.2 2.4-.2 3.2.7.4.4 1.8 2.9 3.2 5.4l8 14.5 5.5 10 .1 3.1a6849.5 6849.5 0 0 0 1.7 63.8c.3 8.9.3 11.5 0 12-.1.4-1.7 2.7-3.5 5.2a23.1 23.1 0 0 0-3.1 5.1c0 .4 1.6 3.9 3.7 7.7l3.7 7 .2 3.7c.2 2.8 1.1 58.3 1.2 67 0 2 .4 2.6 1.8 3 1 .1 1 .2 1.2 1.8.4 2.8.3 27.5 0 28.1-.4.7-1.6.7-9.2.3zM555.4 180c.5-.5.6-1 .4-2.4l-.4-15.5a5475 5475 0 0 0-1.2-48c0-3.6-.1-5.2-.4-5.6-.4-.5-1-.5-5-.4H544v6.6c.1 12.2 1.6 64.3 1.9 65 .1.4.7.6 2.5.7 6 .2 6.3.2 7-.4z"/>
<path class="logo-title" d="M606.2 40.5c-1.6-.1-3.4 1.2-4.4 3.5l-5 10a41 41 0 0 0-4.5 9.3c0 1.2.8 3 1.6 3.3.3.2 2 .3 3.7.2 3 0 3.2 0 4-.9.6-.4 1-1 1-1.2 0-.5 1.7-3.4 4-6.7a23 23 0 0 0 1.4-2.3c0-.3 1.4-2.2 3.6-4.8 4.5-5.3 4.9-5.7 4.9-6.5 0-1.1-1.6-2.5-3-2.5a21.2 21.2 0 0 1-7.3-1.4zm2.7 33.2h-2.4l-26.8 1.5c-.2 0-.6.3-.9.6-.3.6-.3 2.7 0 15.9.3 11.8.4 15.2.7 15.6.3.4 1 .5 2.9.5 1.6 0 2.4.1 2.5.4l1 34.2 1.5 58c.4 13 .8 34 1.2 63 .3 14.3.3 19.6 0 20.1-.3.6-.5.6-2.5.5h-2.5c-.3.1-.4 3.4-.4 15 0 13.8 0 14.7.5 15.2s1.6.6 7.5 1c3.9.2 10.2.6 14.2 1 9.4.6 9 .6 9.5.2.3-.3.3-4 .3-15.1 0-12.4 0-14.8-.4-15.3-.3-.5-.9-.7-2.3-.8-1 0-2-.3-2.3-.6-.4-.4-.5-1.4-1.3-54-.3-18-.7-37.7-1.6-71.7-1.5-52.7-1.4-51.3-.8-51.7a7 7 0 0 1 2.3-.3c1.8 0 2 0 2.2-.7.3-.7 0-17.4-.4-28.3-.1-3.5 0-4.2-1.7-4.2z"/>
<path class="logo-title" d="m672.2 322.3-12.5-1.3c-9.2-1-12-1.3-12.4-1.7-.4-.4-.5-2.3-.5-15.8v-15.3l2.3-.1c1.3-.1 2.4-.3 2.5-.5.3-.4.2-1.7-.9-17.7l-1-16c-.4-6.3-.6-8.7-.9-9.2-.2-.2-1.6-.4-5-.5l-4.6-.1-.3.7c-.2.4-.4 2.6-.5 5 0 2.3-.3 6.5-.5 9.3l-.6 10.5-.6 11c-.4 6.7-.5 6.5 2.7 6.8 1.2 0 2.3.3 2.4.5.4.6.7 29.7.3 30.6-.2.7-.3.7-2.5.5-1.2 0-6.2-.5-11-1a214 214 0 0 1-9.6-.8c-.4-.1-.8-.4-.9-.7-.2-.9-.3-30 0-30.2 0-.1 1-.2 2-.1 1.4 0 2.1-.1 2.3-.4.3-.2.5-2.8.7-6.3a4971.4 4971.4 0 0 0 2.4-48c.5-9 1-17.2 1.4-27.9l1-23.5 1.7-39.8c1.4-35.7 1.3-35.5 3.3-45.3l3-15c1.2-5.6 1.7-7.8 2.1-7.9 1-.1 9.9-.8 10.1-.6.3 0 .6.5.7.8.3.7 6.3 24.3 7.4 28.9.5 2 .7 3.6 1.1 9l.8 10 .7 9.8 1.6 20.4.5 5.2a1937.6 1937.6 0 0 0 2.3 28l.7 9.6 1.7 20.6a586.8 586.8 0 0 1 1.6 21.7l1.4 19.4 2 28.7c.4 6 .4 6 2.7 6.3 1 0 2 .2 2 .3.5.5.7 5.3.7 17.8 0 7.4 0 13.7-.2 14-.1.4-1.8.6-3.6.3zM645.8 207c.4-.5.3-3-.6-12.8l-.6-7.4c-.6-8.2-1.2-14-1.5-14.6-.4-.8-.5-.2-1.6 18.7a76 76 0 0 0-.3 16.1c.6.7 4 .7 4.6 0z"/>
<path class="logo-title" d="m728.4 328.7-17.4-2.8c-5-.6-7.4-.8-7.3-2 .1-.8.4-8.6.4-15.2-.2-11.9-.1-15.3.2-15.7.7-1.1 5.7.4 6.7-.3.4-.3.5-2.2.3-17.6a8075.7 8075.7 0 0 0-2.3-124.7l-.7-28.8a365 365 0 0 0-.6-18.3c-.2-.7-.3-.7-2.7-.5-1.3 0-2.5.2-2.7.3-.4.3-.3 5.5.3 30.7.7 28.2.7 26.5.2 27a32 32 0 0 1-11.8 0c-.3-.8-.5-5.7-1-26l-.7-35-.4-15.1 1.7-5.6 2.3-7.2a6 6 0 0 1 1-2c.3-.3 2.6-.7 7.4-1.2l32-3.8c6-.7 7.3-.8 7.7-.5.2.2 1.5 3.4 3 7.2l2.5 6.7.3 12 .7 36.7.7 28.7c0 2.5 0 4.1-.2 4.4-.2.4-1.4.5-6 .6-5.4 0-5.8 0-6-.5-.3-.4-.6-9.9-.8-24.1-.6-29.2-.8-34.7-1.1-35-.2-.2-1.2-.3-2.2-.3-3 .1-3 .3-2.8 5.8l.4 19.8.6 28.4c.9 36.7 1.5 70.4 2.1 118.5.3 17.6.4 21.2.7 21.6.8.6 5.3.8 6 1.4.3.4.6 32.7.2 33.4-.3.4 0 .5-10.7-1z"/>
<path class="logo-title" d="m790.1 338.6-13.6-2.4c-2.6-.5-3-.7-3.3-1.3-.3-.6-.4-6-.5-17.7-.2-18.5-.3-17.8 1.6-17.6l1.8.3c1.4.3 1.9-.5 1.7-2.3l-.4-5.5-.4-9-.8-13.4c-.6-11.8-1-17.4-1.4-18-.3-.7-1-.8-5.7-1l-3.9-.3-.3 1.2-1 13.9a3057 3057 0 0 1-1.2 28.7v4l2.3.3c1.3.1 2.5.4 2.7.7.3.2.4 4.5.4 17.7 0 9.5-.1 17.4-.2 17.5-.2.2-4.3-.4-21.4-3.2-1-.2-2-.5-2.2-.8-.3-.4-.4-4-.4-17.3v-16.8h2.2c1.7 0 2.3-.1 2.5-.5a3483.2 3483.2 0 0 0 2.5-49.9l.6-13.4 1.4-29c.6-12.2 1-18.5 1-23l.5-10.9c.7-15.4 1.8-41.3 2.4-59.5.5-12.8.8-16.2 1.7-20.7.4-2.3 1-4.8 1-5.7l.6-3.2 2.5-14a74 74 0 0 1 1.6-8c.4-.8.7-.8 5.3-1.6 2.7-.4 5.1-.7 5.3-.6.5.2 1 2 2.1 7.2l1.1 5.2.8 3.4.7 3.5 1.4 6.4 1.5 7a88 88 0 0 1 1.3 13 7065.9 7065.9 0 0 0 4.9 71.6 2150 2150 0 0 1 1.8 27.5l.7 11.2 2 29.6a2694.3 2694.3 0 0 1 2.6 43c.7 12.7 1 17 1.4 17.5.2.2 1 .5 2 .6.9 0 1.8.4 2 .6a770.4 770.4 0 0 1 .5 35.6c0 .4-.3 1-.6 1a93 93 0 0 1-11-1.6zm-18-128.8c.1-.5-.2-8.3-.9-16.4l-.7-11.2c-.5-8.1-1-12-1.4-11l-.5 7.2-.7 10.9a157 157 0 0 0-.6 20.2c.3.7.4.8 2.4.8 1.8 0 2.2 0 2.4-.5z"/>
<path class="logo-title" d="m836.6 347.5-16-3.4c-5.3-1.1-9.4-2.1-9.7-2.4-.3-.3-.4-3.3-.5-18.7-.1-11.8 0-18.4 0-18.6.4-.4.8-.4 3.4-.1 1.7.2 3.3.3 3.6.2.5-.2.5-2.1.3-27.2l-.5-46.1-1.4-95c-.6-43.8-.7-47.5-1.2-48-.5-.3-4.7.1-5 .7-.3.3 0 30.8.3 53.4.2 8 .1 11.9 0 12.4-.4.7-.5.7-5.5 1h-5.8c-.4 0-.8-.4-.9-.8 0-.4-.3-9.2-.4-19.6l-.7-38.4c-.2-10.7-.3-22-.2-25l.1-5.7 1.6-5.9c2.4-8.7 2.7-9.8 3.1-10.3.3-.4 2.8-1 8.7-2l23.3-4.5c14.6-2.9 14.9-3 15.3-2.4a1574 1574 0 0 1 5.1 15.9c.4 1.4.5 6.9.8 31.6l.5 47.5.2 17.6-.9.4c-.5.1-2.9.2-6.1.2h-5.3l-.3-9-.5-34.2-.5-25.8c-.2-.5-1.3-.6-3.2-.3-2.2.4-2-.9-1.7 22.5l1.3 103.4a14183.6 14183.6 0 0 1 1.3 96.8c.2.6.2.6 3.6 1.2 1.7.4 2.1.5 2.4 1.2.4.8.7 38 .3 38.6-.3.6-1.7.4-9-1.2z"/>
<path class="logo-title" d="m901.4 361.1-16.5-4a80.4 80.4 0 0 1-13.6-3.8 842.5 842.5 0 0 1-.7-40.2c.2-.9.7-1 3.8-.4 2.2.4 3 .4 3.3.2.5-.6.4-28.4-.6-123.3l-.6-57c-.6-53-.6-53.3-1-53.7-.5-.4-4.4 0-5 .6-.5.5-.5 9.3 0 47.3v24.8c-.4.7-1.4.9-7.3 1-4.2.2-4.3.2-4.7-.4-.4-.7-.8-19.5-1.3-75.7l-.1-20 2.1-9c2.2-9.4 2.6-10.5 3.2-11 .3-.3 4.2-1.2 19.2-4.6l21.9-5c6-1.5 5.9-1.5 6.2-.5.2.4 1.5 4.7 2.8 9.5l2.5 8.6v10c.4 31.9.7 95 .6 95.5-.3.6-.7.7-6.5.9l-5.4.2-.3-.8c-.2-.4-.4-15.4-.5-37.8-.3-33.2-.3-37-.8-37.5-.4-.4-.7-.4-2.2-.2-1 .2-2 .6-2.2.8-.6.6-.6 5.8.5 124.3l1 115.2c0 1.8.6 2.3 3.4 2.8 1.3.2 2.5.6 2.7 1 .4.4.5 3 .5 21.3.1 17.3 0 21-.3 21.4-.2.3-.5.5-.6.4l-3.5-.9z"/>
<path class="logo-title" d="m945.5 373.7-10.4-3c-.4-.4-.9-1.8-3.2-10.4-2.5-9.5-6-21.9-8.5-30l-2.5-8.6-.3-35.8a235704.7 235704.7 0 0 1-1.5-202.2V71.3l1.6-5.7c1-3.1 2.7-9.2 3.8-13.4l6-22L932 24c1-3.9.9-3.8 5.6-5a412 412 0 0 0 17.1-4.5c.3 0 1.1 2 1.7 4.4 2 7.3 7 24 10.6 35.3l2.3 7.6v13.5l.5 89.1.6 121.1.3 45.3-.7 2.6-3.4 11a3351.2 3351.2 0 0 0-9.6 31.4c-.2.4-.6.8-1 .8-.3 0-5-1.2-10.6-2.8zm5.7-46.6c.5-.6.5-18.3 0-97.6-.3-25.8-.5-72.8-.6-104.5-.2-45.5-.3-57.7-.6-58.3-.5-.8-.3-.8-6.9.4-4.5 1-4.8 1-5 3-.2.6 0 29.5.2 64.3l.7 116 .4 63.4c.1 9.8.1 10.8.6 11.3.4.4 2.2.9 5.2 1.5 5.5 1.1 5.5 1.1 6 .5z"/>
<path class="logo-title" d="M998.7 390.2c-6.5-2-10.2-3.4-10.4-3.7-.2-.2-2-7-4-15-4-16.3-6.9-27-8.7-33.4l-1.3-4.3-.2-47.2-.6-135.6-.4-88.4 1-3.6 1.8-7.1c1.9-7 7.3-28.5 9.1-36.2 2-8.4 2.6-9.9 3.7-10.2a314.2 314.2 0 0 0 16.7-5l2-.4c2-.3 2.5 0 2.9 1.5.7 3.1 9.6 37.3 11.6 44.2l1.6 5.6.3 146.8.2 146.8-3.2 11.2a2757.7 2757.7 0 0 0-10.5 37c-.1.1-.6.3-1 .3l-10.6-3.3zm6.3-51.6V257c-.3-44.4-.5-107.4-.6-140.2-.1-46.9-.3-59.7-.6-60-.3-.3-1.3-.2-5.1.6-6.3 1.4-6 1.2-6.4 3-.3 1.6-.3 55.7.1 136.5l.4 96c.2 32.7.3 43.9.6 44.3a45.7 45.7 0 0 0 10.5 2.8c.8 0 .9-.2 1.1-1.3z"/>
<path class="logo-subtitle" d="M324.4 383.5c-.5-.1-1.2-.4-1.6-.7a8.5 8.5 0 0 1-2.3-2.7l-.6-1a40.8 40.8 0 0 1-4.2-17.2c-.5-4.4-.7-5.7-1.2-6.4-1-1.4-1-1.8 0-4 .8-1.4 1.2-2.7 1.4-4.4a51.7 51.7 0 0 1 2.4-11.2c.8-2.9 4.2-7.4 6-8 2.4-.8 4-.3 6 1.8.6.7 1.2 1.2 1.4 1.2l1-1c1.6-2 1.7-1.8 1.7 6l.1 9.6c.1 2 0 2.8-.3 3.1-.6.6-3.3.6-3.6.1-.2-.2-.2-2-.2-4 0-5.7-.6-8.5-2.4-10.4-.8-.8-2.7-.9-3.4-.1-1.3 1.4-1.5 2.7-1.5 9.4v6.5l1 1.9 1 1.8-1 2-1 2 .2 8.4c.1 8.6.3 9.7 1.3 10.6.7.5 2.7.5 3.1 0 .8-1 1.2-3.7 1.1-8.5 0-4.7 0-4.8-.8-5.4l-1.6-1.8c-.8-1-.8-1.1-.3-1.6.4-.3 1-.5 3-.5a8 8 0 0 0 4.8-1 12 12 0 0 1 2.9-1c.9 0 2 1.3 2.3 2.6.2 1.2-.2 2-.9 1.3-.6-.6-2-.4-2.5.4-.7 1.1-1 6.1-.8 14.7.1 7 .1 7.2-.5 7.5-.7.4-8.2.4-10 0z"/>
<path class="logo-subtitle" d="M396 375.3a8 8 0 0 1-1.7-.8c-.5-.3-1.4-.5-2.6-.5-1 0-2.2-.1-2.7-.3-.6-.1-1 0-1.6.4-.9.8-1.8.9-3 .3-.6-.3-.9-.2-1.5.2-1 .7-1.5.6-2.9-.6-1.4-1.3-1.5-1.8-.3-2.3.7-.4.8-.6.8-2.2 0-1-.3-3.3-.6-5.2l-1-7c-.6-4.8-1-6.4-1.5-6.4-.3 0-.4.3-.4 1.3 0 .6-.1 2-.3 2.9-1.1 6-1.6 9.3-1.8 12-.1 1.7-.4 3.3-.6 3.6-.5.6-4.4.6-4.8 0l-.6-3.8a348 348 0 0 0-1.7-14.1c-.2-.6-.3-1-.5-1.2-.5-.3-1.1 2.5-1.3 5.5 0 1.6-.3 4.4-.6 6-1 6.1-1 8.2-.6 8.7.6.7.5 1.3-.4 2.3-.8 1-1.3 1.2-2.2.6-.4-.3-.8-.3-1.4 0-.7.3-1 .3-1.5 0-.7-.5-1-.5-1.7-.2s-1 .3-1.8 0c-.7-.3-1-.3-1.6 0-1 .8-1.9.7-2.7-.2-1-.9-1-1.6-.2-1.6 1.4 0 1.4-1.3.2-8.2l-.4-2.3-2-.2c-1.8-.2-2.2-.2-2.5.2-.2.2-.6 2.1-.9 4.2l-.6 4.4c-.1.4 0 .9.6 1.4 1 .8 1 1 0 2s-1.2 1-2.2.3c-.7-.5-.9-.5-1.6-.2-1.1.7-2 .6-3-.4s-1-1.5.2-1.5c.4 0 .9-.3 1.1-.7.5-.7 1.4-5.1 2.2-10.5.8-6 .8-6.2.3-7.2-.6-1.3-.6-2 .1-3 .3-.5.8-1.3 1-1.9.7-1.1 2-9.3 2-12 .1-1.5 0-1.8-.7-2.3-.6-.5-.7-.7-.4-1.2.9-1.7 2.8-2.2 4.2-1.2 1 .8 1.4.8 2.2-.1.8-1.2 2.2-1 3.1.4.8 1 .8 1.8.2 1.6a2 2 0 0 0-1 .3c-.6.3-.6.5-.5 1.9.2.8.4 3.4.7 5.8.6 6.2.8 6.9 2.2 9l.7 1-.5 1.6c-.6 1.5-.6 1.6.3 8.7.4 4 1 7.6 1.2 8.2.4 1 1 1.2 2 .7.6-.4 2.6-11.7 2.3-13.8 0-.7-.3-1.7-.5-2.2-.4-.9-.4-1.1 0-1.8 1.3-2 1.8-3.5 2.2-6.4l1-6.2c.6-4.3.6-5-.4-5.8l-.8-.7.7-1.1c1-1.5 2-1.9 3-1.4.7.2 1.2.2 1.6 0 1-.5 1.5-.3 2.5.9 1.2 1.2 1.3 1.7.6 2.6-.7.6-.7 2.8-.2 6.3l.8 5.8c.6 4.2 1 6 1.4 5.3l.7-4.2 1-7c.5-4.3.5-5.5-.2-6.4-.6-.8-.6-.9-.2-1.7.3-.5.9-1.2 1.3-1.4.6-.5.9-.5 2-.2 1 .4 1.2.4 1.7 0 .5-.6.7-.6 1.5-.1.5.2 1.3 1 1.7 1.6l.8 1.1-1 .8-1 .8.3 3a41.2 41.2 0 0 0 1.3 8.8c.5 2.7.8 3.6 1.5 4.7 1 1.6 1.2 2.3.5 3.6-.6 1.1-.5 2.2.6 8.5.9 5.3 1.2 6.2 2.2 6.6 1 .4 2.2.3 2.2-.1V363c0-7.2 0-8-.6-9.1-.8-1.5-.8-1.8 0-3.1.6-1 .6-1.5.5-8.3 0-8 0-8.2-2-8.3h-1l.7-.9c1.1-1.2 3.1-1.4 4.3-.6.9.7 1.6.8 1.9.3.1-.1.7-.5 1.3-.7 1.3-.6 3.8-.4 5.1.3 1.4.7 3.7 3.1 3.7 3.9l.5 2c.3.9.5 2.5.5 4.5 0 2.7 0 3.5-.7 5-.4 1-1 2.3-1.5 2.8-.7 1-.7 1-.2 1.8 1 1.6 2.4 4.8 2.7 6.3.4 2.2.2 6.3-.4 8.6-1 4-3.2 7-5.7 7.6l-1.6.4c-.2 0-.8 0-1.4-.2zm2.3-4.8c1.2-.6 1.4-1.4 1.4-7.1 0-5.6-.3-7-1.5-7.6-.8-.5-1.4-.2-2 1-.3.7-.4 2.1-.4 6.4 0 5.5.1 6.7 1 7.3.7.4.6.4 1.5 0zm-48.7-14c.3-.3.4-.8.3-1.3l-.4-4.3-.6-4c-.4-.6-.4-.6-.8-.1-.2.3-.4 1-.4 1.5l-.7 4.2c-.6 3.6-.6 4 1 4.2l1 .2.6-.4zm49.2-8c.5-.7.6-1.5.6-5.4l.1-4.6-.8-.9c-.8-.7-.9-.7-1.7-.3-1.3.7-1.6 2.2-1.5 7 0 3 .2 4.2.5 4.6.6.7 2.1.5 2.8-.4z"/>
<path class="logo-subtitle" d="M472.7 375.9c-.5-.3-1.5-.9-2-1.4-1.2-1-2-1.2-2.2-.5 0 .2-.8.7-1.7 1.2-1.4.8-1.7.8-2.6.5-.6-.2-1.4-.3-1.9-.2-.9.2-2.7-.4-3.3-1.2-.5-.5-1-.3-2.7.9-.9.6-1.5.8-2 .7-.7-.2-2-2-2.7-3.4-.2-.3-.4-4-.5-8.2-.2-7.2-.2-7.7-.8-8-.6-.6-2.7-1-3.2-.7-.1 0-.3 3.3-.3 7.6 0 7.9.2 8.9 1.6 9.3.3 0 .6.3.6.5 0 .5-1.2 2.4-1.8 2.6-.5.3-1.7 0-2.8-.9-.4-.3-.7-.2-1.3.3-1 .7-1.7.6-2.8-.4-1-1-1.2-1-2.6.2-2 1.5-3 1.1-4.6-1.7l-.9-1.4v-14.9l-1-.7c-.6-.6-1-.7-2-.6H428l-.1 7.5c-.1 7 0 7.4.5 8.4.3.5.8 1 1 1 .7 0 .6.6 0 1.7-.8 1.3-1.8 1.8-2.6 1.3l-1.2-.8c-.4-.2-.7-.1-1.4.3-1.2.7-2.4.3-3.5-1.2-1-1.2-1.2-1.3-2-.4-.3.4-1.2 1.1-2 1.6-1.4.7-1.9.8-3 .7a7 7 0 0 1-2.6-1c-1-.7-1.3-.7-2.2-.4-1 .4-1.2.3-2.2-.2-1.3-.8-2-1.6-1.3-1.9.2 0 .7-.4 1-.7.5-.5.5-1 .4-8.5-.2-7.2-.3-8-.8-9.4l-.7-1.4.7-1.4c.6-1.2.7-1.6.6-8-.1-7.1-.1-7.2-1.7-7.2-1 0-.8-.9.4-2 1.2-1.1 2.2-1.3 3.5-.6.6.4.8.3 2-.3 2.2-1.3 4.8-1 7.5.7.6.4.8.4 1.6-.3.8-.8.9-.8 1.2-.4.3.3.7.4 1.3.3a2 2 0 0 1 1.6.3c1 .6 1.2.6 2.6-.3 1-.7 1.6-.9 3.4-.9 2 0 2.4 0 3.5.9 4.3 3 5.3 12.6 1.8 17.4-.8 1.1-.7 1.6.4 2.7 1.9 2 2 2.9 2 9.4 0 3.2.1 6 .2 6.3l.3 1.3c.1.5.5 1 1.1 1.3 1.8 1 1.8 1 1.8-7.8 0-7.4 0-8-.6-8.8-.8-1.2-.8-2.2 0-3.8.5-1 .6-1.8.6-7.6 0-6.4-.1-7.5-1-7.5-1.4 0-.6-1.8 1-2.6.7-.3 1-.3 1.5 0l1.2.6c.2.1.9-.1 1.5-.6 1-.7 1.7-.9 3.3-1 2-.1 2.3 0 3.5.7 1.5.8 2.8 2.7 3.7 5.2.8 2.1.8 7.2 0 9.5-.5 1-1 2.2-1.4 2.6-.8 1.2-.8 2.4 0 2.8.3.2 1 1 1.4 1.8l.9 1.4v6.5c0 7 .2 7.7 1.7 9.1.8.8 1 .9 1.4.4.4-.4.5-1.6.4-8.4 0-7.5 0-8-.6-9-.8-1.3-.8-2.1 0-3.7.6-1.2.7-1.7.6-7.5 0-6.6-.1-7.3-1.4-7.8-1-.4-1-1.1.2-2.2 1-1 2.1-1.3 2.9-1a9 9 0 0 0 2.5.3c2 0 2.1 0 3.3 1.2l1.2 1.2 1-1c2.8-2.4 5-2.4 7.6-.1 1.3 1.2 1.6 1.2 2.7.1.6-.6.8-.6 1-.3v13.4l-1 .3c-.7.2-1.2.1-1.8 0-.7-.4-.7-.5-.7-4 0-2.8-.1-3.6-.6-4.6-.5-1-.8-1.2-1.8-1.4-.7 0-1.5 0-1.8.2-1.8 1-2.3 5-.8 8 .9 1.8 2.3 3.2 3.3 3.2.9 0 1.3.4 1.5 1.9.1.6 1 2.3 1.9 3.6 2.1 3.2 2.6 4.9 2.6 9.1 0 3-.1 3.7-1 6-1 3.3-2.8 5.3-5.1 6.1-1.6.6-2 .6-3.2 0zm-4-3.3c0-.3-.4-1.1-.8-1.7-.5-.6-.8-1.4-.8-1.7 0-.3-.1-.5-.4-.4-.6.2-.4 3.1.2 3.8.8.8 1.7.9 1.7 0zm-47-1c.4-.4.4-1.2.4-4.7 0-3.3-.3-3.5-.4-.3 0 1.7-.2 2.4-.7 3.4-.5 1-.6 1.4-.4 1.7.4.4.7.4 1 0zm53.8-1c1.4-1 2-5.5 1-8-.9-2.4-1.8-3.5-3-3.7-1.7-.3-2-.6-2.1-1.8 0-.7-.4-1.6-.8-2.1-2.6-3.8-3.3-5-3.4-5.7-.2-1-.5-1-.8-.4-.1.3.1 1.3.6 2.2.9 2 .9 2.2.1 3.5-.4.6-.7 1.7-.8 2.5-.2 1.9.2 2.2 2 1.4 1-.3 1.3-.4 1.6-.1.2.2.4 2 .4 4.3.2 4.7.6 6.1 2.1 7.5 1.2 1 2 1.2 3 .5zm-59.2-.5c1.7-1.2 1.8-1.6 1.9-5.3v-3.5h1.4c1.4-.2 2 .2 2.2 1.2.2.8.4-3 .3-5.4 0-1.2-.3-2.2-.7-2.8-.7-1.2-.7-2 0-3.4 1-2 .7-7.5-.3-5.6-.3.5-2 .6-2.6 0-.3-.2-.4-1.3-.4-3 0-2-.1-3.2-.4-3.8-.5-1-1.9-1.8-2.9-1.8-.8 0-2 .6-2.3 1.2-.3.8-.5 10.2-.1 11 .2.7.5.8 1.5.8 1.3 0 1.8-.6 1.8-2.1 0-1.2.7-1.3 1.2 0 .3.6.3 1.5.2 2.8v3c.4 1.4 0 3.1-.8 3.5-.8.5-1 .4-.8-.4.2-1.2-.4-1.7-1.8-1.6h-1.2v7.5c0 7.1 0 7.5.6 8 1 .6 2 .5 3.2-.3zm15-21.4c.5-.9.6-1.6.6-5.2 0-3.4-.1-4.4-.6-5.2-.6-1.2-1.4-1.7-2.5-1.6-.8.1-.8.2-1 1.8 0 .9-.1 3.8 0 6.4 0 4.6 0 4.8.7 5 1 .4 2.1-.1 2.8-1.2zm18.2 1.1c1-.7 1.5-3 1.4-6.5 0-4.8-.8-6.3-2.9-6.3-.6 0-1 .2-1.2.7-.2.8 0 11.9.2 12.3.3.4 1.8.3 2.5-.2zm-27.6-12.3c0-.5-.2-1-.4-1-.3-.2-.4.5-.3 2.7v2.8l.3-1.8.4-2.7zm45.4.8.6-1.7c.1-.4 0-.5-.6-.5-1 0-1.5.9-1.2 2.2.2 1.4.8 1.4 1.2 0z"/>
<path class="logo-subtitle" d="M485.5 376c-.2-.2-1-.3-1.8-.1-1.2.1-1.4 0-1.8-.6-1-1.4-1-2-.2-2.3 1.2-.5 1.7-2.2 2.3-7l.7-4.8c.3-2.5.3-2.9-.2-3.8-.6-1.5-.6-2 .4-3.7 1-1.4 1.3-3 1.9-6.7l.7-5.3c.6-4 .6-4.3-.3-5.1-1-1-1-1.2.2-2.5 1-1 2-1.4 3-.8.2.2.8.1 1.4 0 1.2-.4 2.1 0 3 1.7.5 1 .5 1-.1 1.8-.8 1-.8 1.1 0 8 1 7.3 1.4 9.4 1.7 9.4.3 0 .8-2.2 1.2-5.7l.7-5.2c.7-4.9.7-5.3 0-6.6l-.8-1.2.8-1c.8-1.3 1.8-1.7 3-1.2.5.3.8.3 1.7-.1.9-.5 1-.5 1.8 0 1 .8 2.2 2.9 1.7 3a5 5 0 0 0-.9.6c-.8.6-.6 3.7.6 10.4.9 4.9 1.1 5.7 2 6.8 1 1.5 1.1 2.1.5 3.2-.7 1.2-.6 2.6.4 8.4 1 5.6 1.3 6.5 2.4 7.2 1 .6.8 1.2-.4 2.2-1.2 1.1-1.3 1.1-2.9.6-.9-.2-1.3-.2-2 .2-1 .5-1.8.3-3-1-.9-1.2-1-1.8-.1-1.8 1.2 0 1.3-1.2.6-5.7a105 105 0 0 1-1.2-10l-.7-3.3c-.6-3.4-.8-3-1.7 3.5L499 364c-.3 1.1-.5 2.8-.5 3.6 0 2.2-.4 4.2-.9 4.5-.7.4-4 .3-4.4-.1-.2-.2-.5-2-.7-4a144 144 0 0 0-2-15c-.6-.6-1.3 1.7-1.3 3.6 0 1.8-.2 2.8-1.2 10.7-.6 4.4-.6 4.9-.2 5.5.6 1 .6 1.5-.4 2.5s-1.2 1.1-1.9.7z"/>
<path class="logo-subtitle" d="M519 376c-1.6-.7-3-2.4-4.2-4.7a39 39 0 0 1-2.5-11.8c-.2-2.8-.4-3.5-1-4.6l-.7-1.3.7-1.7c.5-1.1.9-2.6 1-4 .2-2.8 1.5-8.1 2.1-9.5 1-1.7 3-4.2 3.9-4.8 4.1-2.5 8.8 4 9.9 14a11 11 0 0 0 1.1 4.6l.8 1.4-.6 1.3c-.5 1-.8 2.5-1.2 6.1-.7 7-1.8 10.5-4.1 13.3-1.3 1.4-2.5 2.3-3.5 2.3l-1.7-.6zm2.7-5c1-1 1-2 1-8.1 0-6 0-6.2-.8-7.8l-.7-1.5.8-1.8c.8-1.9.8-1.9.6-6.8a29 29 0 0 0-.7-5.8c-.7-2-3.1-1.5-3.7.7-.1.6-.3 3.2-.3 5.6 0 4.2 0 4.6.8 6.3l.8 1.7-.8 1.3c-.6 1.3-.7 1.8-.7 6.8 0 5.8.2 7.8 1.2 9 .6 1 1.7 1 2.5.3z"/>
<path class="logo-subtitle" d="M544.8 376.4c-2-.2-2.4-.5-3.8-1.7-1.6-1.5-1.7-2-.3-2 .9 0 1.1-.2 1.4-.7v-6c-.2-2.9-.2-5.7-.1-6 .2-1.1-.4-3.3-1.3-4.7-.8-1-.8-1.3-.4-2.1.5-1.4.5-2-.8-6.5-1.5-5.5-2.6-8.2-3.4-8.7-1-.7-.9-1 .6-2.7 1.2-1.4 1.3-1.4 2.7-1.2 1 .1 1.5 0 2-.3.8-.6 1.4-.5 2.5.4.9.7 1.8 2.3 1.8 3 0 .3-.4.6-.9.7-1 .4-1 .5-.4 3 1 4.5 1.6 4.7 2.7 1.2.9-3 1-3.6.2-4.3-.8-.7-.6-1.2.6-2.5.9-1 1.1-1 2.7-1 2 0 2.5.3 3.4 2 .5 1 .5 1 0 1.7-1 1-2 3-2.8 6a127 127 0 0 1-1.6 4.6c-.6 1.8-.6 2.8.3 4.6.4.9.3 1-.5 2.7l-1 1.7v7c0 4.1.2 7.1.3 7.4.2.4.7.8 1 1l.8.4-.6 1c-.3.6-1 1.2-1.5 1.6-1 .6-1.4.6-3.6.4z"/>
<path class="logo-subtitle" d="m570.4 376.8-1.7-.9c-.6-.4-1-.5-1.9-.2-1.2.4-2.5 0-3-1-.4-.5-.1-.9.8-1.2.2 0 .3-3.2.2-8.6 0-7.7-.1-8.5-.6-9.4-.8-1.3-.8-1.6 0-2.9.5-.9.6-1.5.6-7.8 0-8-.2-8.6-1.9-9-1.3-.1-1.3-.7 0-1.4s3-.6 3.9.2c.6.6.8.7 1.4.3 1.8-1.2 2.4-1.3 4.3-1.2 3.2.3 5.2 2.1 6.5 6 1.5 4.9 1 9.6-1.6 13l-.6.9 1 1.5.9 1.7.6 1.7c.6 1 .7 2 .8 5 .1 3.4 0 4-.6 6.2-1.1 3.3-2.7 5.6-4.5 6.5-1.7.9-3.4 1.1-4.6.6zm3.4-5.2c.6-.8.6-1.2.6-6.5 0-5 0-5.7-.6-6.6-.7-1.2-1.2-1.4-2-1-1.1.6-1.4 2.2-1.2 8 0 5 .1 5.6.6 6.2.8.9 1.8.8 2.6-.1zm-.5-21c.8-.8 1.2-3.5 1-7 0-2.4-.2-3.4-.6-4-.7-1-1.8-1-2.7.2-.6.7-.6 1.3-.7 5.3-.2 4.2-.1 4.5.5 5.3.8 1 1.8 1 2.5.2z"/>
<path class="logo-subtitle" d="M626.3 377.4a6 6 0 0 1-2-.8c-.6-.5-1.1-.6-2.2-.4-1 .1-1.6 0-2.6-.6l-1.2-.6-.9.7c-2.3 2.2-3.3 2.2-4.8.1-1.3-1.9-1.6-3.5-1.6-10.7 0-3.2 0-6.2-.2-6.6-.1-.7-.5-.9-2-1.3-2-.4-2-.4-2 7.6 0 7.8.2 8.8 1.5 9.2.8.2.7.7-.1 2-.8 1.3-2 1.5-3.2.6-1-.7-1.5-.8-1.5-.4 0 .9-2.4 1-3 .1-.2-.5-1-.4-2 .3-.8.7-.8.7-1.6.2-.8-.4-1-.4-1.6 0-1.2.6-2.4.5-3.2-.4-.9-1-.8-1.5.1-1.5 1 0 1.3-.7 1.1-2.2-.4-3-1.3-8-1.4-8l-2.3-.3h-2.3l-.4 2.2c-1.2 7.2-1.2 7.4-.4 8 .8.4.8 1.1 0 2-1 .7-1.3.7-2.3.1-.7-.5-.8-.5-1.7 0-1 .5-1 .5-2 0-.8-.4-1.5-1.2-1.5-1.7 0-.1.3-.2.7-.2.4 0 .9-.3 1.2-.6.5-.6 2-7 2-8.7 0-.6.2-2.2.5-3.4.6-3 .6-5.2 0-6.2-.7-1-.7-1.2.6-3.1 1.3-2.2 2-5.7 2.7-12.6.2-1.9.2-2-.6-2.8-1-1-1-1 0-2.2 1-1.2 2-1.2 3.8-.3l1.1.7 1-1c.9-1 1.2-1.1 2.1-.6.6.3 1.5 1.7 1.5 2.3 0 .2-.4.4-.8.4l-.9.1v2.5c.2 2.8 1 10 1.4 11.6.1.6.7 1.7 1.2 2.5l1 1.4-.7 1.4c-.6 1.3-.6 1.7-.3 3.8l1.4 10.8c.2 2.2.5 2.8 1.6 2.8 1.5 0 1.5-.2 1.5-8.6v-7.8l-.7-1.3-.8-1.4.8-1.5c.7-1.5.7-1.6.7-8 0-6.8-.1-7.7-1.2-7.7-1 0-.7-1.1.4-2 1.2-.9 1.8-1 3-.2.8.5.9.5 2-.3a8.3 8.3 0 0 1 5.4-1c2.4.4 4.9 3.9 5.5 7.7a15.7 15.7 0 0 1-1.3 9.5c-1.2 2.4-1.3 3-.4 3.7.4.2 1 1 1.4 1.6.7 1.2.7 1.6.8 8 0 7.2.1 7.3 1.7 9 .8.7 1.1.9 1.5.6.4-.2.4-1.3.3-8.7 0-7.7-.1-8.5-.7-9.5l-.6-1.2.6-1c.7-1 .7-1.6.7-8.3 0-8-.1-8.6-1.8-8.8-1.2 0-1.2-.8 0-1.4 1.5-.7 3-.7 4 0l.9.7 1-.7c1.6-1 2.5-1.2 4.4-.7 2.2.4 4 1.8 5 4.3 2.3 4.8 2 10.5-.7 14.5l-.8 1.1.8 1.2c1.7 2.5 2.4 4.8 2.5 8.6.2 4-.2 6-1.7 9-1.7 3.3-4.5 5-7.4 4.4zm3-5.4c.4-.6.5-1.3.5-6.3 0-4.7-.1-5.7-.6-6.7-.4-.8-.7-1-1.4-1s-1 .2-1.4 1c-.5 1-.6 2-.6 6.3 0 2.9.2 5.6.3 6 .7 1.7 2 2 3.1.7zm-38-13.5-.2-4c-.6-5.4-.7-5.8-1.2-5.7-.4 0-.6.6-.7 1.6 0 .9-.4 2.9-.7 4.6-.3 1.7-.5 3.3-.4 3.5.3.8 2.9.8 3.2 0zm18.3-7.2c.9-.8 1.2-2.5 1.2-6.2 0-4.3-.5-5.7-1.9-6.4-1.3-.6-2-.3-2.3 1.1a66.6 66.6 0 0 0 .7 12c.6.3 1.5.1 2.3-.5zm19.2-.4c.7-1 1-3 .9-6.6 0-3.5-.1-3.7-.9-4.5-1-1-1.9-.8-2.6.6-.4.8-.5 1.7-.5 5.6 0 4.5 0 4.7.7 5.2.8.7 1.8.6 2.4-.3z"/>
<path class="logo-subtitle" d="m692.3 387.1-1.9-1c-1-.8-1.2-.8-2.2-.5-1.5.6-2.6.2-4.1-1.2l-1.3-1.3 1-.3a3 3 0 0 0 1.4-1c.2-.3.3-3.6.2-10.3v-9.8l-1-2.2-.9-2.3.8-1.5.8-1.6V346c0-9-.1-9.7-1.6-9.9-.7 0-.8 0-.8.8s-.2 1-.7 1c-1.4 0-1.4.3-1.4 7.2 0 6.4 0 6.6.7 8 1 1.9 1 2.3.1 4-.7 1.1-.7 1.5-.7 8.8 0 6.7 0 7.6.5 8.4.3.4.8.8 1.2.8 1.5 0 .7 1.3-1.6 2.4-1 .5-1.4.6-2 .3-.4-.2-1.3-.3-2-.3a5 5 0 0 1-2.8-.8l-1.3-.8-1.3 1c-1.8 1.3-2.7 1.2-4-.4l-1.2-1.7a71 71 0 0 1-.5-8.1c-.1-7.1-.1-7.7-.7-8.2-1-.9-2.7-1.1-3.3-.5-.5.5-.5 1.2-.4 7.7 0 6.2.1 7.2.6 8 .3.4.8.8 1 .8 1 0 .7 1.2-.6 2.6-.8.9-1.5.9-2.7 0-.8-.6-.9-.6-1.8 0-.9.4-1.2.4-2 .1-.8-.2-1.3-.2-2 0-.8.3-1.2.3-1.8 0-.5-.2-.9-.2-1.5.2-1.2.6-2 .5-2.8-.3-.9-.9-1-1.7-.1-1.7 1.1 0 1.3-.7.7-4l-.7-4.6c0-.8-.4-1.6-.6-1.7a7 7 0 0 0-2.4-.2h-2l-.3 2c-1.2 7.1-1.2 7.8-.2 8.4.7.3.4 1.3-.7 2-.7.5-.8.5-1.7 0-.8-.4-1.1-.4-1.7-.1-1.2.5-1.9.4-2.9-.7l-1-1 1.1-.3c1.4-.4 1.6-1 2.4-5.2 1.7-9.5 1.8-12 1-13.8-.4-1-.4-1.1.7-2.8a12 12 0 0 0 1.3-3.1c.4-1.9 1.2-7 1.4-9.6.2-2 .2-2.2-.6-2.9-.8-.7-.8-.8-.4-1.6.5-.9 1.6-1.6 2.5-1.6.2 0 .9.3 1.5.7l1.1.8 1-1c1.4-1.1 2.1-1 3 .2 1 1.3 1 2 0 2-.8.1-.8.2-.8 2.4 0 1.2 0 3 .2 3.8l.5 4.2c.4 3.5.8 4.7 1.7 6 .9 1.3 1 1.8.2 3.4-.4 1-.3 1.5.4 7l1 7.5c.2 1.9.5 2.6 1.2 2.6 1.1 0 1.3-1 1.3-8.7v-7.4l-.8-1.4-.8-1.5.8-2c.7-1.7.8-2.4.6-4l-.1-6.4V338l-1-.3-.9-.6c0-.4 2-2 2.6-2.2.3-.1.9 0 1.4.5l1 .6.8-.6c1.3-1 2.3-1.2 4.2-1.3 3 0 4.3 1 6 4.6 1 2.2 1.1 2.3 1.1 5.9 0 3.1 0 3.9-.7 5.4l-1.3 2.7c-.8 1-.7 1.5.3 2.4 1.8 1.5 2 2.2 2.2 9.7.1 3.9.3 7.2.4 7.5.2.3.5.6.8.7.3.1.7.5.7.8.3.7 1 .7 1.4 0 .2-.4.3-3.5.3-8 0-7.4 0-7.5-.8-9l-.8-1.7.8-2c.7-1.7.8-2.3.8-6.2 0-5.6-.4-8.6-1-9-1.4-.8-1.5-.9-1.1-1.5.7-1.5 3.3-2.4 4.2-1.6.2.3.6.3 1.5 0 1-.3 1.4-.3 2.1 0 1 .3 1 .3 2.7-1.2 1.9-1.8 3-2 4.6-.9l.9.6 1.3-.8c1-.7 1.8-1 3.4-1.1 2.4-.2 3.5 0 5.6 1.3 1.9 1 2.5 1 3.3 0 .6-.8.7-.8 1-.2.7.8.7 16 0 16.5-.5.4-2.9.1-3.4-.4-.2-.3-.3-2-.2-4 0-2.4-.1-4-.4-4.6-.8-2-3.7-3-5.4-2.2-1.5.8-1.6 1.6-1.6 8.8 0 4 .1 6.8.3 7.1.3.5.6.7 1.7.7 1.9 0 2.4-.8 2.4-3 0-1.3 0-1.5.4-1.4l.6.2.5.9c.4.6.5 1.9.5 4.6v5c0 1.5-.7 2.9-1.8 3-.6.1-.6 0-.4-1 .1-1 0-1.3-.5-1.6-.7-.4-2.4-.4-3 0-.4.2-.5 1.4-.6 6 0 3.2 0 7.5.2 9.5.3 3.8.4 4.2 2.1 4.6 1 .3 2.8-.6 4.1-2l1.1-1V374l.2-4.6c.1-.2.7-.4 1.8-.4 1.3 0 1.7.1 2 .6l.2 5c0 5 0 5.4-2.7 8.9-1.9 2.6-3.7 3.8-6.3 3.9a9 9 0 0 1-2.8-.3zm-46-27.9c.8-.8-.4-10.1-1.1-10.1-.4 0-.5.4-1.3 5.4-.7 4.2-.7 4.3 0 4.7.7.6 2 .6 2.5 0zm18-7.7c1-1.2 1.3-2.9 1-7 0-2.5-.2-3.5-.7-4.3-.6-1.1-2-1.7-2.7-1.2-.5.3-.5 1-.6 6.4-.1 4.3 0 6.3.2 6.6.6.7 2 .5 2.8-.5z"/>
</g>
</svg>