<svg xmlns="http://www.w3.org/2000/svg" width="2000" height="2000" viewBox="0 0 2000 2000" shape-rendering="crispEdges"><path fill="#fff" d="M0 0h2000v2000H0z"/><path d="M743 173h57v57h-57zm114 0h57v57h-57zm114 0h57v57h-57z"/><path d="M1028 173h57v57h-57zm285 0h57v57h-57zm-684 57h57v57h-57zm114 0h57v57h-57zm171 0h57v57h-57z"/><path d="M971 230h57v57h-57z"/><path d="M1028 230h57v57h-57zm114 0h57v57h-57zm-285 57h57v57h-57z"/><path d="M914 287h57v57h-57zm171 0h57v57h-57zm171 0h57v57h-57z"/><path d="M1313 287h57v57h-57zm-684 57h57v57h-57z"/><path d="M686 344h57v57h-57z"/><path d="M743 344h57v57h-57zm114 0h57v57h-57zm114 0h57v57h-57z"/><path d="M1028 344h57v57h-57z"/><path d="M1085 344h57v57h-57z"/><path d="M1142 344h57v57h-57z"/><path d="M1199 344h57v57h-57zm114 0h57v57h-57zm-627 57h57v57h-57z"/><path d="M1199 401h57v57h-57z"/><path d="M1256 401h57v57h-57zm-627 57h57v57h-57z"/><path d="M686 458h57v57h-57zm114 0h57v57h-57z"/><path d="M857 458h57v57h-57zm171 0h57v57h-57zm114 0h57v57h-57zm-513 57h57v57h-57zm114 0h57v57h-57z"/><path d="M857 515h57v57h-57zm114 0h57v57h-57zm114 0h57v57h-57zm114 0h57v57h-57zm114 0h57v57h-57zm-627 57h57v57h-57z"/><path d="M743 572h57v57h-57z"/><path d="M800 572h57v57h-57zm285 0h57v57h-57z"/><path d="M1142 572h57v57h-57z"/><path d="M1199 572h57v57h-57z"/><path d="M1256 572h57v57h-57z"/><path d="M1313 572h57v57h-57zM173 629h57v57h-57z"/><path d="M230 629h57v57h-57z"/><path d="M287 629h57v57h-57z"/><path d="M344 629h57v57h-57z"/><path d="M401 629h57v57h-57zm114 0h57v57h-57z"/><path d="M572 629h57v57h-57z"/><path d="M629 629h57v57h-57z"/><path d="M686 629h57v57h-57zm114 0h57v57h-57zm228 0h57v57h-57z"/><path d="M1085 629h57v57h-57z"/><path d="M1142 629h57v57h-57zm171 0h57v57h-57z"/><path d="M1370 629h57v57h-57zm114 0h57v57h-57zm114 0h57v57h-57zm114 0h57v57h-57zM230 686h57v57h-57zm114 0h57v57h-57zm114 0h57v57h-57zm114 0h57v57h-57zm171 0h57v57h-57zm114 0h57v57h-57z"/><path d="M914 686h57v57h-57zm171 0h57v57h-57zm285 0h57v57h-57zm171 0h57v57h-57z"/><path d="M1598 686h57v57h-57zm114 0h57v57h-57zM230 743h57v57h-57z"/><path d="M287 743h57v57h-57zm228 0h57v57h-57zm228 0h57v57h-57zm171 0h57v57h-57z"/><path d="M971 743h57v57h-57zm171 0h57v57h-57z"/><path d="M1199 743h57v57h-57z"/><path d="M1256 743h57v57h-57zm228 0h57v57h-57zm114 0h57v57h-57z"/><path d="M1655 743h57v57h-57zM173 800h57v57h-57z"/><path d="M230 800h57v57h-57z"/><path d="M287 800h57v57h-57z"/><path d="M344 800h57v57h-57zm114 0h57v57h-57zm114 0h57v57h-57zm285 0h57v57h-57z"/><path d="M914 800h57v57h-57zm171 0h57v57h-57z"/><path d="M1142 800h57v57h-57z"/><path d="M1199 800h57v57h-57z"/><path d="M1256 800h57v57h-57z"/><path d="M1313 800h57v57h-57zm114 0h57v57h-57z"/><path d="M1484 800h57v57h-57z"/><path d="M1541 800h57v57h-57z"/><path d="M1598 800h57v57h-57zm171 0h57v57h-57zM230 857h57v57h-57zm114 0h57v57h-57z"/><path d="M401 857h57v57h-57z"/><path d="M458 857h57v57h-57z"/><path d="M515 857h57v57h-57z"/><path d="M572 857h57v57h-57z"/><path d="M629 857h57v57h-57z"/><path d="M686 857h57v57h-57z"/><path d="M743 857h57v57h-57zm114 0h57v57h-57zm114 0h57v57h-57z"/><path d="M1028 857h57v57h-57zm114 0h57v57h-57zm399 0h57v57h-57zM287 914h57v57h-57z"/><path d="M344 914h57v57h-57zm228 0h57v57h-57zm456 0h57v57h-57z"/><path d="M1085 914h57v57h-57zm114 0h57v57h-57z"/><path d="M1256 914h57v57h-57z"/><path d="M1313 914h57v57h-57zm171 0h57v57h-57zm114 0h57v57h-57zm114 0h57v57h-57zM287 971h57v57h-57zm171 0h57v57h-57z"/><path d="M515 971h57v57h-57z"/><path d="M572 971h57v57h-57zm114 0h57v57h-57zm114 0h57v57h-57z"/><path d="M857 971h57v57h-57zm285 0h57v57h-57zm114 0h57v57h-57zm342 0h57v57h-57z"/><path d="M1655 971h57v57h-57z"/><path d="M1712 971h57v57h-57z"/><path d="M1769 971h57v57h-57zm-1596 57h57v57h-57z"/><path d="M230 1028h57v57h-57z"/><path d="M287 1028h57v57h-57z"/><path d="M344 1028h57v57h-57zm228 0h57v57h-57zm171 0h57v57h-57z"/><path d="M800 1028h57v57h-57zm171 0h57v57h-57zm114 0h57v57h-57zm114 0h57v57h-57z"/><path d="M1256 1028h57v57h-57z"/><path d="M1313 1028h57v57h-57zm114 0h57v57h-57z"/><path d="M1484 1028h57v57h-57z"/><path d="M1541 1028h57v57h-57zm171 0h57v57h-57z"/><path d="M1769 1028h57v57h-57zm-1596 57h57v57h-57z"/><path d="M230 1085h57v57h-57zm228 0h57v57h-57z"/><path d="M515 1085h57v57h-57zm114 0h57v57h-57z"/><path d="M686 1085h57v57h-57z"/><path d="M743 1085h57v57h-57z"/><path d="M800 1085h57v57h-57zm228 0h57v57h-57z"/><path d="M1085 1085h57v57h-57z"/><path d="M1142 1085h57v57h-57z"/><path d="M1199 1085h57v57h-57zm285 0h57v57h-57z"/><path d="M1541 1085h57v57h-57zm-1368 57h57v57h-57z"/><path d="M230 1142h57v57h-57zm114 0h57v57h-57zm342 0h57v57h-57z"/><path d="M743 1142h57v57h-57zm114 0h57v57h-57z"/><path d="M914 1142h57v57h-57z"/><path d="M971 1142h57v57h-57z"/><path d="M1028 1142h57v57h-57z"/><path d="M1085 1142h57v57h-57zm171 0h57v57h-57zm114 0h57v57h-57zm114 0h57v57h-57z"/><path d="M1541 1142h57v57h-57z"/><path d="M1598 1142h57v57h-57zm114 0h57v57h-57zm-1539 57h57v57h-57zm171 0h57v57h-57zm171 0h57v57h-57z"/><path d="M572 1199h57v57h-57zm114 0h57v57h-57z"/><path d="M743 1199h57v57h-57zm171 0h57v57h-57z"/><path d="M971 1199h57v57h-57zm171 0h57v57h-57zm171 0h57v57h-57zm285 0h57v57h-57z"/><path d="M1655 1199h57v57h-57zm-1482 57h57v57h-57zm228 0h57v57h-57zm171 0h57v57h-57z"/><path d="M629 1256h57v57h-57z"/><path d="M686 1256h57v57h-57z"/><path d="M743 1256h57v57h-57zm114 0h57v57h-57z"/><path d="M914 1256h57v57h-57zm228 0h57v57h-57z"/><path d="M1199 1256h57v57h-57z"/><path d="M1256 1256h57v57h-57z"/><path d="M1313 1256h57v57h-57z"/><path d="M1370 1256h57v57h-57z"/><path d="M1427 1256h57v57h-57z"/><path d="M1484 1256h57v57h-57z"/><path d="M1541 1256h57v57h-57zm171 0h57v57h-57z"/><path d="M1769 1256h57v57h-57zm-1596 57h57v57h-57zm114 0h57v57h-57zm114 0h57v57h-57zm114 0h57v57h-57z"/><path d="M572 1313h57v57h-57zm114 0h57v57h-57zm171 0h57v57h-57zm114 0h57v57h-57z"/><path d="M1028 1313h57v57h-57zm114 0h57v57h-57zm171 0h57v57h-57z"/><path d="M1370 1313h57v57h-57z"/><path d="M1427 1313h57v57h-57z"/><path d="M1484 1313h57v57h-57z"/><path d="M1541 1313h57v57h-57z"/><path d="M1598 1313h57v57h-57z"/><path d="M1655 1313h57v57h-57z"/><path d="M1712 1313h57v57h-57zm-1083 57h57v57h-57zm114 0h57v57h-57zm513 0h57v57h-57z"/><path d="M1313 1370h57v57h-57zm228 0h57v57h-57zm171 0h57v57h-57zm-1083 57h57v57h-57zm114 0h57v57h-57z"/><path d="M800 1427h57v57h-57z"/><path d="M857 1427h57v57h-57zm171 0h57v57h-57z"/><path d="M1085 1427h57v57h-57z"/><path d="M1142 1427h57v57h-57zm171 0h57v57h-57zm114 0h57v57h-57zm114 0h57v57h-57z"/><path d="M1598 1427h57v57h-57z"/><path d="M1655 1427h57v57h-57zm-969 57h57v57h-57z"/><path d="M743 1484h57v57h-57z"/><path d="M800 1484h57v57h-57zm171 0h57v57h-57zm114 0h57v57h-57z"/><path d="M1142 1484h57v57h-57z"/><path d="M1199 1484h57v57h-57zm114 0h57v57h-57zm228 0h57v57h-57zm114 0h57v57h-57z"/><path d="M1712 1484h57v57h-57z"/><path d="M1769 1484h57v57h-57zm-1140 57h57v57h-57z"/><path d="M686 1541h57v57h-57zm114 0h57v57h-57zm228 0h57v57h-57z"/><path d="M1085 1541h57v57h-57zm228 0h57v57h-57z"/><path d="M1370 1541h57v57h-57z"/><path d="M1427 1541h57v57h-57z"/><path d="M1484 1541h57v57h-57z"/><path d="M1541 1541h57v57h-57zm114 0h57v57h-57z"/><path d="M1712 1541h57v57h-57z"/><path d="M1769 1541h57v57h-57zm-1140 57h57v57h-57z"/><path d="M686 1598h57v57h-57zm171 0h57v57h-57z"/><path d="M914 1598h57v57h-57z"/><path d="M971 1598h57v57h-57z"/><path d="M1028 1598h57v57h-57zm285 0h57v57h-57zm114 0h57v57h-57z"/><path d="M1484 1598h57v57h-57zm-855 57h57v57h-57zm114 0h57v57h-57zm171 0h57v57h-57z"/><path d="M971 1655h57v57h-57z"/><path d="M1028 1655h57v57h-57z"/><path d="M1085 1655h57v57h-57z"/><path d="M1142 1655h57v57h-57z"/><path d="M1199 1655h57v57h-57z"/><path d="M1256 1655h57v57h-57zm171 0h57v57h-57z"/><path d="M1484 1655h57v57h-57zm171 0h57v57h-57z"/><path d="M1712 1655h57v57h-57zm-1083 57h57v57h-57zm228 0h57v57h-57z"/><path d="M914 1712h57v57h-57zm171 0h57v57h-57z"/><path d="M1142 1712h57v57h-57z"/><path d="M1199 1712h57v57h-57z"/><path d="M1256 1712h57v57h-57z"/><path d="M1313 1712h57v57h-57zm285 0h57v57h-57z"/><path d="M1655 1712h57v57h-57zm114 0h57v57h-57zm-1140 57h57v57h-57z"/><path d="M686 1769h57v57h-57z"/><path d="M743 1769h57v57h-57zm114 0h57v57h-57zm114 0h57v57h-57z"/><path d="M1028 1769h57v57h-57z"/><path d="M1085 1769h57v57h-57z"/><path d="M1142 1769h57v57h-57zm228 0h57v57h-57z"/><path d="M1427 1769h57v57h-57zm114 0h57v57h-57z"/><path d="M1598 1769h57v57h-57z"/><path d="M1655 1769h57v57h-57z"/><svg x="173" y="173" width="399" height="399" viewBox="0 0 699.988 699.986" xml:space="preserve"><use href="#B"/></svg><svg x="173" y="173" width="399" height="399" viewBox="0 0 699.988 699.988" xml:space="preserve"><use href="#C"/></svg><svg x="1427" y="173" width="399" height="399" viewBox="0 0 699.988 699.986" xml:space="preserve"><use href="#B"/></svg><svg x="1427" y="173" width="399" height="399" viewBox="0 0 699.988 699.988" xml:space="preserve"><use href="#C"/></svg><svg x="173" y="1427" width="399" height="399" viewBox="0 0 699.988 699.986" xml:space="preserve"><use href="#B"/></svg><svg x="173" y="1427" width="399" height="399" viewBox="0 0 699.988 699.988" xml:space="preserve"><use href="#C"/></svg><defs ><path id="B" d="M600.99 0h-100-99.997-.001-99.997-99.998-99.998H1v99.998 99.998 99.998 99.999 99.997 99.998 99.998h99.999 99.998 99.998 99.997.001 99.997 100 99.998v-99.998-99.998-99.997-99.999-99.998-99.998V0H600.99zm0 199.996v99.998 99.999 99.997 99.998h-100-99.997-.001-99.997-99.998-99.998V499.99v-99.997-99.999-99.998-99.998h99.998 99.998 99.997.001 99.997 100v99.998z"/><path id="C" d="M399.994 199.997h-.002-99.996-99.998v99.997 100 99.997h99.998 99.996.002 99.996v-99.997-100-99.997z"/></defs></svg>